<mxfile host="app.diagrams.net" modified="2023-12-20T04:38:01.318Z" agent="Mozilla/5.0 (Windows NT 10.0; Win64; x64) AppleWebKit/537.36 (KHTML, like Gecko) Chrome/120.0.0.0 Safari/537.36" etag="dvBhRtNjr2TElZcgQxIp" version="22.1.11" type="device" pages="2">
  <diagram id="XKtqtM00OOXSMKdttpyM" name="Entity">
    <mxGraphModel dx="2091" dy="2130" grid="1" gridSize="10" guides="1" tooltips="1" connect="1" arrows="1" fold="1" page="1" pageScale="1" pageWidth="583" pageHeight="827" background="none" math="0" shadow="0">
      <root>
        <mxCell id="0" />
        <mxCell id="1" parent="0" />
        <mxCell id="2KToigr1VJ64m0hYZ8_5-70" value="" style="endArrow=none;html=1;rounded=1;entryX=0;entryY=0.5;entryDx=0;entryDy=0;exitX=1;exitY=0.5;exitDx=0;exitDy=0;" edge="1" parent="1" source="2KToigr1VJ64m0hYZ8_5-7" target="2KToigr1VJ64m0hYZ8_5-66">
          <mxGeometry width="50" height="50" relative="1" as="geometry">
            <mxPoint x="800" y="-527" as="sourcePoint" />
            <mxPoint x="1040" y="-607" as="targetPoint" />
          </mxGeometry>
        </mxCell>
        <mxCell id="2KToigr1VJ64m0hYZ8_5-71" value="" style="endArrow=none;html=1;rounded=1;entryX=0;entryY=0.5;entryDx=0;entryDy=0;exitX=1;exitY=0.5;exitDx=0;exitDy=0;" edge="1" parent="1" source="2KToigr1VJ64m0hYZ8_5-7" target="2KToigr1VJ64m0hYZ8_5-68">
          <mxGeometry width="50" height="50" relative="1" as="geometry">
            <mxPoint x="800" y="-527" as="sourcePoint" />
            <mxPoint x="950" y="-607" as="targetPoint" />
          </mxGeometry>
        </mxCell>
        <mxCell id="2KToigr1VJ64m0hYZ8_5-72" value="" style="endArrow=none;html=1;rounded=1;entryX=0;entryY=0.5;entryDx=0;entryDy=0;exitX=1;exitY=0.5;exitDx=0;exitDy=0;" edge="1" parent="1" source="2KToigr1VJ64m0hYZ8_5-7" target="2KToigr1VJ64m0hYZ8_5-67">
          <mxGeometry width="50" height="50" relative="1" as="geometry">
            <mxPoint x="800" y="-527" as="sourcePoint" />
            <mxPoint x="950" y="-557" as="targetPoint" />
          </mxGeometry>
        </mxCell>
        <mxCell id="2KToigr1VJ64m0hYZ8_5-73" value="" style="endArrow=none;html=1;rounded=1;entryX=0;entryY=0.5;entryDx=0;entryDy=0;exitX=1;exitY=0.5;exitDx=0;exitDy=0;" edge="1" parent="1" source="2KToigr1VJ64m0hYZ8_5-7" target="2KToigr1VJ64m0hYZ8_5-69">
          <mxGeometry width="50" height="50" relative="1" as="geometry">
            <mxPoint x="800" y="-527" as="sourcePoint" />
            <mxPoint x="950" y="-497" as="targetPoint" />
          </mxGeometry>
        </mxCell>
        <mxCell id="IH2KLxH-AXLg-ZDoIqro-108" value="" style="endArrow=none;html=1;rounded=1;entryX=0.5;entryY=0;entryDx=0;entryDy=0;exitX=0.5;exitY=1;exitDx=0;exitDy=0;" parent="1" source="IH2KLxH-AXLg-ZDoIqro-90" target="IH2KLxH-AXLg-ZDoIqro-95" edge="1">
          <mxGeometry width="50" height="50" relative="1" as="geometry">
            <mxPoint x="320.5" y="-207" as="sourcePoint" />
            <mxPoint x="379.5" y="-268" as="targetPoint" />
          </mxGeometry>
        </mxCell>
        <mxCell id="4wrqPvFWdJHmVNuEyCFh-63" value="" style="endArrow=none;html=1;rounded=0;exitX=0;exitY=0.5;exitDx=0;exitDy=0;entryX=1;entryY=0.5;entryDx=0;entryDy=0;" parent="1" source="4wrqPvFWdJHmVNuEyCFh-14" target="4wrqPvFWdJHmVNuEyCFh-62" edge="1">
          <mxGeometry width="50" height="50" relative="1" as="geometry">
            <mxPoint x="-809.5" y="-647" as="sourcePoint" />
            <mxPoint x="-919.5" y="-687" as="targetPoint" />
          </mxGeometry>
        </mxCell>
        <mxCell id="4wrqPvFWdJHmVNuEyCFh-56" value="" style="endArrow=none;html=1;rounded=0;exitX=1;exitY=0;exitDx=0;exitDy=0;entryX=0;entryY=0.5;entryDx=0;entryDy=0;" parent="1" source="4wrqPvFWdJHmVNuEyCFh-50" target="4wrqPvFWdJHmVNuEyCFh-9" edge="1">
          <mxGeometry width="50" height="50" relative="1" as="geometry">
            <mxPoint x="-790" y="-957" as="sourcePoint" />
            <mxPoint x="-750" y="-987" as="targetPoint" />
          </mxGeometry>
        </mxCell>
        <mxCell id="4wrqPvFWdJHmVNuEyCFh-57" value="" style="endArrow=none;html=1;rounded=0;exitX=1;exitY=1;exitDx=0;exitDy=0;entryX=0;entryY=0.5;entryDx=0;entryDy=0;" parent="1" source="4wrqPvFWdJHmVNuEyCFh-47" target="4wrqPvFWdJHmVNuEyCFh-9" edge="1">
          <mxGeometry width="50" height="50" relative="1" as="geometry">
            <mxPoint x="-780" y="-947" as="sourcePoint" />
            <mxPoint x="-740" y="-977" as="targetPoint" />
          </mxGeometry>
        </mxCell>
        <mxCell id="4wrqPvFWdJHmVNuEyCFh-58" value="" style="endArrow=none;html=1;rounded=0;exitX=1;exitY=0.5;exitDx=0;exitDy=0;entryX=0;entryY=0.5;entryDx=0;entryDy=0;" parent="1" source="4wrqPvFWdJHmVNuEyCFh-48" target="4wrqPvFWdJHmVNuEyCFh-9" edge="1">
          <mxGeometry width="50" height="50" relative="1" as="geometry">
            <mxPoint x="-889" y="-1014" as="sourcePoint" />
            <mxPoint x="-760" y="-997" as="targetPoint" />
          </mxGeometry>
        </mxCell>
        <mxCell id="4wrqPvFWdJHmVNuEyCFh-59" value="" style="endArrow=none;html=1;rounded=0;exitX=1;exitY=0.5;exitDx=0;exitDy=0;entryX=0;entryY=0.5;entryDx=0;entryDy=0;" parent="1" source="4wrqPvFWdJHmVNuEyCFh-49" target="4wrqPvFWdJHmVNuEyCFh-9" edge="1">
          <mxGeometry width="50" height="50" relative="1" as="geometry">
            <mxPoint x="-880" y="-1028" as="sourcePoint" />
            <mxPoint x="-760" y="-997" as="targetPoint" />
          </mxGeometry>
        </mxCell>
        <mxCell id="4wrqPvFWdJHmVNuEyCFh-42" value="" style="endArrow=none;html=1;rounded=0;entryX=1;entryY=1;entryDx=0;entryDy=0;exitX=0;exitY=0.5;exitDx=0;exitDy=0;" parent="1" source="4wrqPvFWdJHmVNuEyCFh-14" target="4wrqPvFWdJHmVNuEyCFh-26" edge="1">
          <mxGeometry width="50" height="50" relative="1" as="geometry">
            <mxPoint x="-809.5" y="-647" as="sourcePoint" />
            <mxPoint x="-919.5" y="-677" as="targetPoint" />
          </mxGeometry>
        </mxCell>
        <mxCell id="4wrqPvFWdJHmVNuEyCFh-40" value="" style="endArrow=none;html=1;rounded=0;exitX=0;exitY=0.5;exitDx=0;exitDy=0;entryX=1;entryY=0.5;entryDx=0;entryDy=0;" parent="1" source="4wrqPvFWdJHmVNuEyCFh-14" target="4wrqPvFWdJHmVNuEyCFh-28" edge="1">
          <mxGeometry width="50" height="50" relative="1" as="geometry">
            <mxPoint x="-809.5" y="-647" as="sourcePoint" />
            <mxPoint x="-829.5" y="-577" as="targetPoint" />
          </mxGeometry>
        </mxCell>
        <mxCell id="4wrqPvFWdJHmVNuEyCFh-39" value="" style="endArrow=none;html=1;rounded=0;exitX=0;exitY=0.5;exitDx=0;exitDy=0;entryX=1;entryY=0;entryDx=0;entryDy=0;" parent="1" source="4wrqPvFWdJHmVNuEyCFh-14" target="4wrqPvFWdJHmVNuEyCFh-29" edge="1">
          <mxGeometry width="50" height="50" relative="1" as="geometry">
            <mxPoint x="-809.5" y="-647" as="sourcePoint" />
            <mxPoint x="-929.5" y="-557" as="targetPoint" />
          </mxGeometry>
        </mxCell>
        <mxCell id="4wrqPvFWdJHmVNuEyCFh-31" value="" style="endArrow=none;html=1;rounded=1;entryX=0.5;entryY=0;entryDx=0;entryDy=0;exitX=0.5;exitY=1;exitDx=0;exitDy=0;" parent="1" source="IH2KLxH-AXLg-ZDoIqro-90" target="4wrqPvFWdJHmVNuEyCFh-30" edge="1">
          <mxGeometry width="50" height="50" relative="1" as="geometry">
            <mxPoint x="320.5" y="-207" as="sourcePoint" />
            <mxPoint x="370" y="-147" as="targetPoint" />
          </mxGeometry>
        </mxCell>
        <mxCell id="IH2KLxH-AXLg-ZDoIqro-136" value="" style="endArrow=none;html=1;rounded=1;entryX=0.5;entryY=1;entryDx=0;entryDy=0;exitX=0.5;exitY=0;exitDx=0;exitDy=0;" parent="1" source="IH2KLxH-AXLg-ZDoIqro-127" target="IH2KLxH-AXLg-ZDoIqro-118" edge="1">
          <mxGeometry width="50" height="50" relative="1" as="geometry">
            <mxPoint x="-361" y="-271" as="sourcePoint" />
            <mxPoint x="-380" y="-347" as="targetPoint" />
          </mxGeometry>
        </mxCell>
        <mxCell id="IH2KLxH-AXLg-ZDoIqro-135" value="" style="endArrow=none;html=1;rounded=1;entryX=0.5;entryY=1;entryDx=0;entryDy=0;exitX=0.5;exitY=0;exitDx=0;exitDy=0;" parent="1" source="IH2KLxH-AXLg-ZDoIqro-125" target="IH2KLxH-AXLg-ZDoIqro-118" edge="1">
          <mxGeometry width="50" height="50" relative="1" as="geometry">
            <mxPoint x="-281" y="-271" as="sourcePoint" />
            <mxPoint x="-380" y="-357" as="targetPoint" />
          </mxGeometry>
        </mxCell>
        <mxCell id="IH2KLxH-AXLg-ZDoIqro-133" value="" style="endArrow=none;html=1;rounded=1;entryX=0.5;entryY=1;entryDx=0;entryDy=0;exitX=0.5;exitY=0;exitDx=0;exitDy=0;" parent="1" source="IH2KLxH-AXLg-ZDoIqro-124" target="IH2KLxH-AXLg-ZDoIqro-118" edge="1">
          <mxGeometry width="50" height="50" relative="1" as="geometry">
            <mxPoint x="-469" y="-316" as="sourcePoint" />
            <mxPoint x="-380" y="-347" as="targetPoint" />
          </mxGeometry>
        </mxCell>
        <mxCell id="IH2KLxH-AXLg-ZDoIqro-134" value="" style="endArrow=none;html=1;rounded=1;entryX=0.5;entryY=1;entryDx=0;entryDy=0;exitX=0.5;exitY=0;exitDx=0;exitDy=0;" parent="1" source="IH2KLxH-AXLg-ZDoIqro-128" target="IH2KLxH-AXLg-ZDoIqro-118" edge="1">
          <mxGeometry width="50" height="50" relative="1" as="geometry">
            <mxPoint x="-469" y="-271" as="sourcePoint" />
            <mxPoint x="-380" y="-347" as="targetPoint" />
          </mxGeometry>
        </mxCell>
        <mxCell id="IH2KLxH-AXLg-ZDoIqro-36" value="" style="endArrow=none;html=1;rounded=1;entryX=0.5;entryY=1;entryDx=0;entryDy=0;exitX=0.5;exitY=0;exitDx=0;exitDy=0;labelBackgroundColor=none;strokeColor=#23445D;fontColor=default;" parent="1" source="IH2KLxH-AXLg-ZDoIqro-21" target="IH2KLxH-AXLg-ZDoIqro-28" edge="1">
          <mxGeometry width="50" height="50" relative="1" as="geometry">
            <mxPoint x="13" y="-1476" as="sourcePoint" />
            <mxPoint x="167" y="-1446" as="targetPoint" />
          </mxGeometry>
        </mxCell>
        <mxCell id="jMxSnKa2UNdFl_6fg3FB-7" value="MEMO" style="rounded=1;whiteSpace=wrap;html=1;fontSize=27;fillColor=#182E3E;fontColor=#FFFFFF;labelBackgroundColor=none;strokeColor=#FFFFFF;" parent="1" vertex="1">
          <mxGeometry x="-70" y="-547" width="140" height="80" as="geometry" />
        </mxCell>
        <mxCell id="jMxSnKa2UNdFl_6fg3FB-8" value="CALENDER" style="rounded=1;whiteSpace=wrap;html=1;fontSize=25;fillColor=#182E3E;fontColor=#FFFFFF;labelBackgroundColor=none;strokeColor=#FFFFFF;" parent="1" vertex="1">
          <mxGeometry x="-460" y="-867" width="140" height="80" as="geometry" />
        </mxCell>
        <mxCell id="jMxSnKa2UNdFl_6fg3FB-10" value="그룹" style="rounded=1;whiteSpace=wrap;html=1;fontSize=25;fillColor=#182E3E;fontColor=#FFFFFF;labelBackgroundColor=none;strokeColor=#FFFFFF;" parent="1" vertex="1">
          <mxGeometry x="1040" y="-80" width="120" height="60" as="geometry" />
        </mxCell>
        <mxCell id="jMxSnKa2UNdFl_6fg3FB-11" value="알림" style="rounded=1;whiteSpace=wrap;html=1;fontSize=25;fillColor=#182E3E;fontColor=#FFFFFF;labelBackgroundColor=none;strokeColor=#FFFFFF;" parent="1" vertex="1">
          <mxGeometry x="1040" y="-150" width="120" height="60" as="geometry" />
        </mxCell>
        <mxCell id="IH2KLxH-AXLg-ZDoIqro-64" value="" style="fontSize=12;html=1;endArrow=ERoneToMany;startArrow=ERzeroToOne;rounded=1;exitX=1;exitY=0.5;exitDx=0;exitDy=0;entryX=0;entryY=0.5;entryDx=0;entryDy=0;labelBackgroundColor=none;strokeColor=#23445D;fontColor=default;" parent="1" source="IH2KLxH-AXLg-ZDoIqro-55" target="IH2KLxH-AXLg-ZDoIqro-45" edge="1">
          <mxGeometry width="100" height="100" relative="1" as="geometry">
            <mxPoint x="-533" y="-946" as="sourcePoint" />
            <mxPoint x="-533" y="-1036" as="targetPoint" />
            <Array as="points">
              <mxPoint x="-520" y="-1475" />
              <mxPoint x="-520" y="-1307" />
            </Array>
          </mxGeometry>
        </mxCell>
        <mxCell id="IH2KLxH-AXLg-ZDoIqro-65" value="" style="fontSize=12;html=1;endArrow=ERmandOne;startArrow=ERmandOne;rounded=1;entryX=0.5;entryY=1;entryDx=0;entryDy=0;exitX=0.5;exitY=0;exitDx=0;exitDy=0;labelBackgroundColor=none;strokeColor=#23445D;fontColor=default;" parent="1" source="jMxSnKa2UNdFl_6fg3FB-6" target="IH2KLxH-AXLg-ZDoIqro-21" edge="1">
          <mxGeometry width="100" height="100" relative="1" as="geometry">
            <mxPoint x="-522" y="-1207" as="sourcePoint" />
            <mxPoint x="-422" y="-1267" as="targetPoint" />
          </mxGeometry>
        </mxCell>
        <mxCell id="IH2KLxH-AXLg-ZDoIqro-77" value="" style="group" parent="1" vertex="1" connectable="0">
          <mxGeometry x="-180" y="-927" width="300" height="180" as="geometry" />
        </mxCell>
        <mxCell id="jMxSnKa2UNdFl_6fg3FB-6" value="&lt;font style=&quot;font-size: 27px;&quot;&gt;USER&lt;/font&gt;" style="rounded=1;whiteSpace=wrap;html=1;fontSize=14;fillColor=#182E3E;fontColor=#FFFFFF;labelBackgroundColor=none;strokeColor=#FFFFFF;" parent="IH2KLxH-AXLg-ZDoIqro-77" vertex="1">
          <mxGeometry x="60" y="20" width="240" height="160" as="geometry" />
        </mxCell>
        <mxCell id="IH2KLxH-AXLg-ZDoIqro-4" value="" style="endArrow=none;html=1;rounded=1;exitX=0;exitY=1;exitDx=0;exitDy=0;entryX=0.5;entryY=0;entryDx=0;entryDy=0;labelBackgroundColor=none;strokeColor=#23445D;fontColor=default;" parent="1" source="IH2KLxH-AXLg-ZDoIqro-3" target="jMxSnKa2UNdFl_6fg3FB-6" edge="1">
          <mxGeometry width="50" height="50" relative="1" as="geometry">
            <mxPoint x="-300" y="-937" as="sourcePoint" />
            <mxPoint x="-250" y="-987" as="targetPoint" />
          </mxGeometry>
        </mxCell>
        <mxCell id="IH2KLxH-AXLg-ZDoIqro-8" value="" style="endArrow=none;html=1;rounded=1;exitX=1;exitY=1;exitDx=0;exitDy=0;entryX=0.5;entryY=0;entryDx=0;entryDy=0;labelBackgroundColor=none;strokeColor=#23445D;fontColor=default;" parent="1" source="jMxSnKa2UNdFl_6fg3FB-13" target="jMxSnKa2UNdFl_6fg3FB-6" edge="1">
          <mxGeometry width="50" height="50" relative="1" as="geometry">
            <mxPoint x="-461" y="-1222" as="sourcePoint" />
            <mxPoint x="-422" y="-1197" as="targetPoint" />
          </mxGeometry>
        </mxCell>
        <mxCell id="IH2KLxH-AXLg-ZDoIqro-6" value="" style="endArrow=none;html=1;rounded=1;exitX=0.5;exitY=1;exitDx=0;exitDy=0;entryX=0.5;entryY=0;entryDx=0;entryDy=0;labelBackgroundColor=none;strokeColor=#23445D;fontColor=default;" parent="1" source="IH2KLxH-AXLg-ZDoIqro-1" target="jMxSnKa2UNdFl_6fg3FB-6" edge="1">
          <mxGeometry width="50" height="50" relative="1" as="geometry">
            <mxPoint x="-462" y="-1177" as="sourcePoint" />
            <mxPoint x="-422" y="-1182" as="targetPoint" />
          </mxGeometry>
        </mxCell>
        <mxCell id="IH2KLxH-AXLg-ZDoIqro-5" value="" style="endArrow=none;html=1;rounded=1;exitX=0.5;exitY=1;exitDx=0;exitDy=0;entryX=0.5;entryY=0;entryDx=0;entryDy=0;labelBackgroundColor=none;strokeColor=#23445D;fontColor=default;" parent="1" source="IH2KLxH-AXLg-ZDoIqro-2" target="jMxSnKa2UNdFl_6fg3FB-6" edge="1">
          <mxGeometry width="50" height="50" relative="1" as="geometry">
            <mxPoint x="-472" y="-1187" as="sourcePoint" />
            <mxPoint x="-432" y="-1227" as="targetPoint" />
          </mxGeometry>
        </mxCell>
        <mxCell id="IH2KLxH-AXLg-ZDoIqro-83" value="" style="fontSize=12;html=1;endArrow=ERmandOne;startArrow=ERmandOne;rounded=1;entryX=0.75;entryY=0;entryDx=0;entryDy=0;exitX=0.5;exitY=1;exitDx=0;exitDy=0;labelBackgroundColor=none;strokeColor=#23445D;fontColor=default;" parent="1" source="IH2KLxH-AXLg-ZDoIqro-9" target="jMxSnKa2UNdFl_6fg3FB-6" edge="1">
          <mxGeometry width="100" height="100" relative="1" as="geometry">
            <mxPoint x="-196" y="-1147" as="sourcePoint" />
            <mxPoint x="-294" y="-1147" as="targetPoint" />
            <Array as="points">
              <mxPoint x="280" y="-1147" />
              <mxPoint x="160" y="-1147" />
              <mxPoint x="160" y="-1067" />
              <mxPoint x="160" y="-927" />
              <mxPoint x="60" y="-927" />
            </Array>
          </mxGeometry>
        </mxCell>
        <mxCell id="IH2KLxH-AXLg-ZDoIqro-85" value="" style="group;fontSize=19;" parent="1" vertex="1" connectable="0">
          <mxGeometry x="-770" y="-1537" width="220" height="141" as="geometry" />
        </mxCell>
        <mxCell id="IH2KLxH-AXLg-ZDoIqro-63" value="" style="endArrow=none;html=1;rounded=1;exitX=1;exitY=0.5;exitDx=0;exitDy=0;entryX=0;entryY=0.5;entryDx=0;entryDy=0;labelBackgroundColor=none;strokeColor=#23445D;fontColor=default;" parent="IH2KLxH-AXLg-ZDoIqro-85" source="IH2KLxH-AXLg-ZDoIqro-62" target="IH2KLxH-AXLg-ZDoIqro-55" edge="1">
          <mxGeometry width="50" height="50" relative="1" as="geometry">
            <mxPoint x="-338" y="-689" as="sourcePoint" />
            <mxPoint x="-298" y="-689" as="targetPoint" />
          </mxGeometry>
        </mxCell>
        <mxCell id="IH2KLxH-AXLg-ZDoIqro-55" value="&lt;font style=&quot;font-size: 18px;&quot;&gt;AGREEMENT&lt;/font&gt;" style="rounded=1;whiteSpace=wrap;html=1;fontSize=14;fillColor=#182E3E;fontColor=#FFFFFF;labelBackgroundColor=none;strokeColor=#FFFFFF;" parent="IH2KLxH-AXLg-ZDoIqro-85" vertex="1">
          <mxGeometry x="90" y="32" width="120" height="60" as="geometry" />
        </mxCell>
        <mxCell id="IH2KLxH-AXLg-ZDoIqro-62" value="ESSENTIAL" style="ellipse;whiteSpace=wrap;html=1;labelBorderColor=none;fontColor=#FFFFFF;labelBackgroundColor=none;fillColor=#182E3E;fontSize=11;strokeColor=#FFFFFF;rounded=1;" parent="IH2KLxH-AXLg-ZDoIqro-85" vertex="1">
          <mxGeometry x="-10" y="101" width="60" height="40" as="geometry" />
        </mxCell>
        <mxCell id="IH2KLxH-AXLg-ZDoIqro-58" value="CONTENT" style="ellipse;whiteSpace=wrap;html=1;labelBorderColor=none;fontColor=#FFFFFF;labelBackgroundColor=none;fillColor=#182E3E;fontSize=11;strokeColor=#FFFFFF;rounded=1;" parent="IH2KLxH-AXLg-ZDoIqro-85" vertex="1">
          <mxGeometry x="-10" y="41" width="60" height="40" as="geometry" />
        </mxCell>
        <mxCell id="IH2KLxH-AXLg-ZDoIqro-61" value="" style="endArrow=none;html=1;rounded=1;exitX=1;exitY=0.5;exitDx=0;exitDy=0;labelBackgroundColor=none;strokeColor=#23445D;fontColor=default;entryX=0;entryY=0.5;entryDx=0;entryDy=0;" parent="IH2KLxH-AXLg-ZDoIqro-85" source="IH2KLxH-AXLg-ZDoIqro-58" target="IH2KLxH-AXLg-ZDoIqro-55" edge="1">
          <mxGeometry width="50" height="50" relative="1" as="geometry">
            <mxPoint x="-168" y="-679" as="sourcePoint" />
            <mxPoint x="60" y="60" as="targetPoint" />
          </mxGeometry>
        </mxCell>
        <mxCell id="IH2KLxH-AXLg-ZDoIqro-57" value="&lt;u&gt;AGREE_ID&lt;/u&gt;" style="ellipse;whiteSpace=wrap;html=1;labelBorderColor=none;fontColor=#FFFFFF;labelBackgroundColor=none;fillColor=#182E3E;fontSize=11;strokeColor=#FFFFFF;rounded=1;" parent="IH2KLxH-AXLg-ZDoIqro-85" vertex="1">
          <mxGeometry x="-10" y="-19" width="60" height="40" as="geometry" />
        </mxCell>
        <mxCell id="IH2KLxH-AXLg-ZDoIqro-60" value="" style="endArrow=none;html=1;rounded=1;exitX=1;exitY=0.5;exitDx=0;exitDy=0;entryX=0;entryY=0.5;entryDx=0;entryDy=0;labelBackgroundColor=none;strokeColor=#23445D;fontColor=default;" parent="IH2KLxH-AXLg-ZDoIqro-85" source="IH2KLxH-AXLg-ZDoIqro-57" target="IH2KLxH-AXLg-ZDoIqro-55" edge="1">
          <mxGeometry width="50" height="50" relative="1" as="geometry">
            <mxPoint x="-168" y="-679" as="sourcePoint" />
            <mxPoint x="-118" y="-729" as="targetPoint" />
          </mxGeometry>
        </mxCell>
        <mxCell id="IH2KLxH-AXLg-ZDoIqro-86" value="MEMO_NO" style="ellipse;whiteSpace=wrap;html=1;labelBorderColor=none;fontColor=#FFFFFF;labelBackgroundColor=none;fillColor=#182E3E;fontSize=11;strokeColor=#FFFFFF;rounded=1;fontStyle=4" parent="1" vertex="1">
          <mxGeometry x="-100" y="-387" width="60" height="40" as="geometry" />
        </mxCell>
        <mxCell id="IH2KLxH-AXLg-ZDoIqro-87" value="TYPE" style="ellipse;whiteSpace=wrap;html=1;labelBorderColor=none;fontColor=#FFFFFF;labelBackgroundColor=none;fillColor=#182E3E;fontSize=11;strokeColor=#FFFFFF;rounded=1;" parent="1" vertex="1">
          <mxGeometry x="-30" y="-387" width="60" height="40" as="geometry" />
        </mxCell>
        <mxCell id="IH2KLxH-AXLg-ZDoIqro-88" value="" style="endArrow=none;html=1;rounded=1;exitX=0.5;exitY=1;exitDx=0;exitDy=0;entryX=0.5;entryY=0;entryDx=0;entryDy=0;" parent="1" source="jMxSnKa2UNdFl_6fg3FB-7" target="IH2KLxH-AXLg-ZDoIqro-86" edge="1">
          <mxGeometry width="50" height="50" relative="1" as="geometry">
            <mxPoint x="-76" y="-597" as="sourcePoint" />
            <mxPoint x="-26" y="-647" as="targetPoint" />
          </mxGeometry>
        </mxCell>
        <mxCell id="IH2KLxH-AXLg-ZDoIqro-89" value="" style="endArrow=none;html=1;rounded=1;exitX=0.5;exitY=1;exitDx=0;exitDy=0;entryX=0.5;entryY=0;entryDx=0;entryDy=0;" parent="1" source="jMxSnKa2UNdFl_6fg3FB-7" target="IH2KLxH-AXLg-ZDoIqro-87" edge="1">
          <mxGeometry width="50" height="50" relative="1" as="geometry">
            <mxPoint x="-40" y="-567" as="sourcePoint" />
            <mxPoint x="-59" y="-613" as="targetPoint" />
          </mxGeometry>
        </mxCell>
        <mxCell id="IH2KLxH-AXLg-ZDoIqro-90" value="MEMO_DETAIL" style="rounded=1;whiteSpace=wrap;html=1;fontSize=16;fillColor=#182E3E;fontColor=#FFFFFF;labelBackgroundColor=none;strokeColor=#FFFFFF;" parent="1" vertex="1">
          <mxGeometry x="330" y="-407" width="120" height="60" as="geometry" />
        </mxCell>
        <mxCell id="IH2KLxH-AXLg-ZDoIqro-91" value="MEMO_NO" style="ellipse;whiteSpace=wrap;html=1;labelBorderColor=none;fontColor=#FFFFFF;labelBackgroundColor=none;fillColor=#182E3E;fontSize=11;strokeColor=#FFFFFF;rounded=1;fontStyle=4" parent="1" vertex="1">
          <mxGeometry x="241" y="-302" width="60" height="40" as="geometry" />
        </mxCell>
        <mxCell id="IH2KLxH-AXLg-ZDoIqro-94" value="CATEGORY_NO" style="ellipse;whiteSpace=wrap;html=1;labelBorderColor=none;fontColor=#FFFFFF;labelBackgroundColor=none;fillColor=#182E3E;fontSize=7;strokeColor=#FFFFFF;rounded=1;" parent="1" vertex="1">
          <mxGeometry x="480.5" y="-302" width="60" height="40" as="geometry" />
        </mxCell>
        <mxCell id="IH2KLxH-AXLg-ZDoIqro-95" value="FAVORITES" style="ellipse;whiteSpace=wrap;html=1;labelBorderColor=none;fontColor=#FFFFFF;labelBackgroundColor=none;fillColor=#182E3E;fontSize=10;strokeColor=#FFFFFF;rounded=1;" parent="1" vertex="1">
          <mxGeometry x="236.25" y="-237" width="60" height="40" as="geometry" />
        </mxCell>
        <mxCell id="IH2KLxH-AXLg-ZDoIqro-96" value="MEMO_CATEGORY" style="rounded=1;whiteSpace=wrap;html=1;fontSize=12;fillColor=#182E3E;fontColor=#FFFFFF;labelBackgroundColor=none;strokeColor=#FFFFFF;" parent="1" vertex="1">
          <mxGeometry x="-60" y="-287" width="120" height="60" as="geometry" />
        </mxCell>
        <mxCell id="IH2KLxH-AXLg-ZDoIqro-97" value="CATEGORY_NO" style="ellipse;whiteSpace=wrap;html=1;labelBorderColor=none;fontColor=#FFFFFF;labelBackgroundColor=none;fillColor=#182E3E;fontSize=7;strokeColor=#FFFFFF;rounded=1;fontStyle=4" parent="1" vertex="1">
          <mxGeometry x="-135.5" y="-197" width="60" height="40" as="geometry" />
        </mxCell>
        <mxCell id="IH2KLxH-AXLg-ZDoIqro-98" value="TITLE" style="ellipse;whiteSpace=wrap;html=1;labelBorderColor=none;fontColor=#FFFFFF;labelBackgroundColor=none;fillColor=#182E3E;fontSize=11;strokeColor=#FFFFFF;rounded=1;" parent="1" vertex="1">
          <mxGeometry x="4.5" y="-197" width="60" height="40" as="geometry" />
        </mxCell>
        <mxCell id="IH2KLxH-AXLg-ZDoIqro-99" value="ORDER" style="ellipse;whiteSpace=wrap;html=1;labelBorderColor=none;fontColor=#FFFFFF;labelBackgroundColor=none;fillColor=#182E3E;fontSize=11;strokeColor=#FFFFFF;rounded=1;" parent="1" vertex="1">
          <mxGeometry x="75.5" y="-197" width="60" height="40" as="geometry" />
        </mxCell>
        <mxCell id="IH2KLxH-AXLg-ZDoIqro-101" value="" style="endArrow=none;html=1;rounded=1;entryX=0.5;entryY=0;entryDx=0;entryDy=0;exitX=0.5;exitY=1;exitDx=0;exitDy=0;" parent="1" source="IH2KLxH-AXLg-ZDoIqro-90" target="IH2KLxH-AXLg-ZDoIqro-91" edge="1">
          <mxGeometry width="50" height="50" relative="1" as="geometry">
            <mxPoint x="320.5" y="-207" as="sourcePoint" />
            <mxPoint x="360.5" y="-257" as="targetPoint" />
          </mxGeometry>
        </mxCell>
        <mxCell id="IH2KLxH-AXLg-ZDoIqro-102" value="" style="endArrow=none;html=1;rounded=1;entryX=0.5;entryY=0;entryDx=0;entryDy=0;exitX=0.5;exitY=1;exitDx=0;exitDy=0;" parent="1" source="IH2KLxH-AXLg-ZDoIqro-90" target="IH2KLxH-AXLg-ZDoIqro-92" edge="1">
          <mxGeometry width="50" height="50" relative="1" as="geometry">
            <mxPoint x="320.5" y="-207" as="sourcePoint" />
            <mxPoint x="379.5" y="-268" as="targetPoint" />
          </mxGeometry>
        </mxCell>
        <mxCell id="IH2KLxH-AXLg-ZDoIqro-103" value="" style="endArrow=none;html=1;rounded=1;entryX=0.5;entryY=1;entryDx=0;entryDy=0;exitX=0.5;exitY=0;exitDx=0;exitDy=0;" parent="1" source="IH2KLxH-AXLg-ZDoIqro-93" target="IH2KLxH-AXLg-ZDoIqro-90" edge="1">
          <mxGeometry width="50" height="50" relative="1" as="geometry">
            <mxPoint x="320.5" y="-207" as="sourcePoint" />
            <mxPoint x="379.5" y="-218" as="targetPoint" />
          </mxGeometry>
        </mxCell>
        <mxCell id="IH2KLxH-AXLg-ZDoIqro-104" value="" style="endArrow=none;html=1;rounded=1;entryX=0.5;entryY=1;entryDx=0;entryDy=0;exitX=0.5;exitY=0;exitDx=0;exitDy=0;" parent="1" source="IH2KLxH-AXLg-ZDoIqro-94" target="IH2KLxH-AXLg-ZDoIqro-90" edge="1">
          <mxGeometry width="50" height="50" relative="1" as="geometry">
            <mxPoint x="320.5" y="-207" as="sourcePoint" />
            <mxPoint x="389.5" y="-208" as="targetPoint" />
          </mxGeometry>
        </mxCell>
        <mxCell id="IH2KLxH-AXLg-ZDoIqro-105" value="CREATE_DT" style="ellipse;whiteSpace=wrap;html=1;labelBorderColor=none;fontColor=#FFFFFF;labelBackgroundColor=none;fillColor=#182E3E;fontSize=10;strokeColor=#FFFFFF;rounded=1;" parent="1" vertex="1">
          <mxGeometry x="405.25" y="-237" width="60" height="40" as="geometry" />
        </mxCell>
        <mxCell id="IH2KLxH-AXLg-ZDoIqro-107" value="OWNER" style="ellipse;whiteSpace=wrap;html=1;labelBorderColor=none;fontColor=#FFFFFF;labelBackgroundColor=none;fillColor=#182E3E;fontSize=11;strokeColor=#FFFFFF;rounded=1;" parent="1" vertex="1">
          <mxGeometry x="-65.5" y="-197" width="60" height="40" as="geometry" />
        </mxCell>
        <mxCell id="IH2KLxH-AXLg-ZDoIqro-110" value="" style="endArrow=none;html=1;rounded=1;entryX=0.5;entryY=0;entryDx=0;entryDy=0;exitX=0.5;exitY=1;exitDx=0;exitDy=0;" parent="1" source="IH2KLxH-AXLg-ZDoIqro-90" target="IH2KLxH-AXLg-ZDoIqro-105" edge="1">
          <mxGeometry width="50" height="50" relative="1" as="geometry">
            <mxPoint x="320.5" y="-207" as="sourcePoint" />
            <mxPoint x="450.5" y="-207" as="targetPoint" />
          </mxGeometry>
        </mxCell>
        <mxCell id="IH2KLxH-AXLg-ZDoIqro-93" value="CONTENT" style="ellipse;whiteSpace=wrap;html=1;labelBorderColor=none;fontColor=#FFFFFF;labelBackgroundColor=none;fillColor=#182E3E;fontSize=11;strokeColor=#FFFFFF;rounded=1;" parent="1" vertex="1">
          <mxGeometry x="401" y="-302" width="60" height="40" as="geometry" />
        </mxCell>
        <mxCell id="IH2KLxH-AXLg-ZDoIqro-92" value="TITLE" style="ellipse;whiteSpace=wrap;html=1;labelBorderColor=none;fontColor=#FFFFFF;labelBackgroundColor=none;fillColor=#182E3E;fontSize=11;strokeColor=#FFFFFF;rounded=1;" parent="1" vertex="1">
          <mxGeometry x="320.5" y="-302" width="60" height="40" as="geometry" />
        </mxCell>
        <mxCell id="IH2KLxH-AXLg-ZDoIqro-112" value="" style="fontSize=12;html=1;endArrow=ERmandOne;startArrow=ERmandOne;rounded=1;exitX=0.5;exitY=0;exitDx=0;exitDy=0;entryX=0;entryY=0.5;entryDx=0;entryDy=0;" parent="1" source="IH2KLxH-AXLg-ZDoIqro-96" target="IH2KLxH-AXLg-ZDoIqro-90" edge="1">
          <mxGeometry width="100" height="100" relative="1" as="geometry">
            <mxPoint x="410" y="-237" as="sourcePoint" />
            <mxPoint x="510" y="-337" as="targetPoint" />
            <Array as="points">
              <mxPoint y="-317" />
              <mxPoint x="240" y="-317" />
              <mxPoint x="240" y="-377" />
            </Array>
          </mxGeometry>
        </mxCell>
        <mxCell id="IH2KLxH-AXLg-ZDoIqro-113" value="" style="fontSize=12;html=1;endArrow=ERmandOne;startArrow=ERmandOne;rounded=1;exitX=0.5;exitY=0;exitDx=0;exitDy=0;entryX=1;entryY=0.5;entryDx=0;entryDy=0;" parent="1" source="IH2KLxH-AXLg-ZDoIqro-90" target="jMxSnKa2UNdFl_6fg3FB-7" edge="1">
          <mxGeometry width="100" height="100" relative="1" as="geometry">
            <mxPoint x="184" y="-327" as="sourcePoint" />
            <mxPoint x="184" y="-507" as="targetPoint" />
            <Array as="points">
              <mxPoint x="390" y="-507" />
              <mxPoint x="160" y="-507" />
            </Array>
          </mxGeometry>
        </mxCell>
        <mxCell id="IH2KLxH-AXLg-ZDoIqro-114" value="" style="endArrow=none;html=1;rounded=1;entryX=1;entryY=0;entryDx=0;entryDy=0;exitX=0.5;exitY=1;exitDx=0;exitDy=0;" parent="1" source="IH2KLxH-AXLg-ZDoIqro-96" target="IH2KLxH-AXLg-ZDoIqro-97" edge="1">
          <mxGeometry width="50" height="50" relative="1" as="geometry">
            <mxPoint x="70" y="-442" as="sourcePoint" />
            <mxPoint x="119" y="-381" as="targetPoint" />
          </mxGeometry>
        </mxCell>
        <mxCell id="IH2KLxH-AXLg-ZDoIqro-115" value="" style="endArrow=none;html=1;rounded=1;entryX=0.5;entryY=0;entryDx=0;entryDy=0;exitX=0.5;exitY=1;exitDx=0;exitDy=0;" parent="1" source="IH2KLxH-AXLg-ZDoIqro-96" target="IH2KLxH-AXLg-ZDoIqro-107" edge="1">
          <mxGeometry width="50" height="50" relative="1" as="geometry">
            <mxPoint x="70" y="-202" as="sourcePoint" />
            <mxPoint x="119" y="-263" as="targetPoint" />
          </mxGeometry>
        </mxCell>
        <mxCell id="IH2KLxH-AXLg-ZDoIqro-116" value="" style="endArrow=none;html=1;rounded=1;entryX=0.5;entryY=0;entryDx=0;entryDy=0;exitX=0.5;exitY=1;exitDx=0;exitDy=0;" parent="1" source="IH2KLxH-AXLg-ZDoIqro-96" target="IH2KLxH-AXLg-ZDoIqro-98" edge="1">
          <mxGeometry width="50" height="50" relative="1" as="geometry">
            <mxPoint x="80" y="-192" as="sourcePoint" />
            <mxPoint x="129" y="-253" as="targetPoint" />
          </mxGeometry>
        </mxCell>
        <mxCell id="IH2KLxH-AXLg-ZDoIqro-117" value="" style="endArrow=none;html=1;rounded=1;entryX=0;entryY=0;entryDx=0;entryDy=0;exitX=0.5;exitY=1;exitDx=0;exitDy=0;" parent="1" source="IH2KLxH-AXLg-ZDoIqro-96" target="IH2KLxH-AXLg-ZDoIqro-99" edge="1">
          <mxGeometry width="50" height="50" relative="1" as="geometry">
            <mxPoint x="70" y="-202" as="sourcePoint" />
            <mxPoint x="110" y="-177" as="targetPoint" />
          </mxGeometry>
        </mxCell>
        <mxCell id="IH2KLxH-AXLg-ZDoIqro-122" value="OWNER" style="ellipse;whiteSpace=wrap;html=1;labelBorderColor=none;fontColor=#FFFFFF;labelBackgroundColor=none;fillColor=#182E3E;fontSize=11;strokeColor=#FFFFFF;rounded=1;fontStyle=0" parent="1" vertex="1">
          <mxGeometry x="40" y="-387" width="60" height="40" as="geometry" />
        </mxCell>
        <mxCell id="IH2KLxH-AXLg-ZDoIqro-123" value="" style="endArrow=none;html=1;rounded=1;exitX=0.5;exitY=0;exitDx=0;exitDy=0;entryX=0.5;entryY=1;entryDx=0;entryDy=0;" parent="1" source="IH2KLxH-AXLg-ZDoIqro-122" target="jMxSnKa2UNdFl_6fg3FB-7" edge="1">
          <mxGeometry width="50" height="50" relative="1" as="geometry">
            <mxPoint x="-46" y="-567" as="sourcePoint" />
            <mxPoint x="-95" y="-603" as="targetPoint" />
          </mxGeometry>
        </mxCell>
        <mxCell id="IH2KLxH-AXLg-ZDoIqro-137" value="" style="group" parent="1" vertex="1" connectable="0">
          <mxGeometry x="-530" y="-417" width="280" height="170" as="geometry" />
        </mxCell>
        <mxCell id="IH2KLxH-AXLg-ZDoIqro-118" value="MEMO_FOLLOW" style="rounded=1;whiteSpace=wrap;html=1;fontSize=14;fillColor=#182E3E;fontColor=#FFFFFF;labelBackgroundColor=none;strokeColor=#FFFFFF;" parent="IH2KLxH-AXLg-ZDoIqro-137" vertex="1">
          <mxGeometry x="80" width="120" height="60" as="geometry" />
        </mxCell>
        <mxCell id="IH2KLxH-AXLg-ZDoIqro-119" value="MEMO_NO" style="ellipse;whiteSpace=wrap;html=1;labelBorderColor=none;fontColor=#FFFFFF;labelBackgroundColor=none;fillColor=#182E3E;fontSize=11;strokeColor=#FFFFFF;rounded=1;fontStyle=4" parent="IH2KLxH-AXLg-ZDoIqro-137" vertex="1">
          <mxGeometry x="-20" y="110" width="60" height="40" as="geometry" />
        </mxCell>
        <mxCell id="IH2KLxH-AXLg-ZDoIqro-126" value="STATUS" style="ellipse;whiteSpace=wrap;html=1;labelBorderColor=none;fontColor=#FFFFFF;labelBackgroundColor=none;fillColor=#182E3E;fontSize=11;strokeColor=#FFFFFF;rounded=1;" parent="IH2KLxH-AXLg-ZDoIqro-137" vertex="1">
          <mxGeometry x="240" y="110" width="60" height="40" as="geometry" />
        </mxCell>
        <mxCell id="IH2KLxH-AXLg-ZDoIqro-129" value="" style="endArrow=none;html=1;rounded=1;entryX=0.5;entryY=1;entryDx=0;entryDy=0;exitX=1;exitY=0;exitDx=0;exitDy=0;" parent="IH2KLxH-AXLg-ZDoIqro-137" source="IH2KLxH-AXLg-ZDoIqro-119" target="IH2KLxH-AXLg-ZDoIqro-118" edge="1">
          <mxGeometry width="50" height="50" relative="1" as="geometry">
            <mxPoint x="110" y="120" as="sourcePoint" />
            <mxPoint x="160" y="70" as="targetPoint" />
          </mxGeometry>
        </mxCell>
        <mxCell id="IH2KLxH-AXLg-ZDoIqro-130" value="" style="endArrow=none;html=1;rounded=1;exitX=0;exitY=0;exitDx=0;exitDy=0;entryX=0.5;entryY=1;entryDx=0;entryDy=0;" parent="IH2KLxH-AXLg-ZDoIqro-137" source="IH2KLxH-AXLg-ZDoIqro-126" target="IH2KLxH-AXLg-ZDoIqro-118" edge="1">
          <mxGeometry width="50" height="50" relative="1" as="geometry">
            <mxPoint x="71" y="101" as="sourcePoint" />
            <mxPoint x="150" y="60" as="targetPoint" />
          </mxGeometry>
        </mxCell>
        <mxCell id="IH2KLxH-AXLg-ZDoIqro-131" value="" style="endArrow=none;html=1;rounded=1;exitX=0.5;exitY=0;exitDx=0;exitDy=0;entryX=0.5;entryY=1;entryDx=0;entryDy=0;" parent="IH2KLxH-AXLg-ZDoIqro-137" source="IH2KLxH-AXLg-ZDoIqro-121" target="IH2KLxH-AXLg-ZDoIqro-118" edge="1">
          <mxGeometry width="50" height="50" relative="1" as="geometry">
            <mxPoint x="239" y="101" as="sourcePoint" />
            <mxPoint x="160" y="70" as="targetPoint" />
          </mxGeometry>
        </mxCell>
        <mxCell id="IH2KLxH-AXLg-ZDoIqro-132" value="" style="endArrow=none;html=1;rounded=1;exitX=0.5;exitY=0;exitDx=0;exitDy=0;entryX=0.5;entryY=1;entryDx=0;entryDy=0;" parent="IH2KLxH-AXLg-ZDoIqro-137" source="IH2KLxH-AXLg-ZDoIqro-120" target="IH2KLxH-AXLg-ZDoIqro-118" edge="1">
          <mxGeometry width="50" height="50" relative="1" as="geometry">
            <mxPoint x="190" y="95" as="sourcePoint" />
            <mxPoint x="160" y="70" as="targetPoint" />
          </mxGeometry>
        </mxCell>
        <mxCell id="IH2KLxH-AXLg-ZDoIqro-120" value="&amp;nbsp;FOLLOWER" style="ellipse;whiteSpace=wrap;html=1;labelBorderColor=none;fontColor=#FFFFFF;labelBackgroundColor=none;fillColor=#182E3E;fontSize=10;strokeColor=#FFFFFF;rounded=1;fontStyle=4" parent="IH2KLxH-AXLg-ZDoIqro-137" vertex="1">
          <mxGeometry x="70" y="110" width="60" height="40" as="geometry" />
        </mxCell>
        <mxCell id="IH2KLxH-AXLg-ZDoIqro-121" value="OWNER" style="ellipse;whiteSpace=wrap;html=1;labelBorderColor=none;fontColor=#FFFFFF;labelBackgroundColor=none;fillColor=#182E3E;fontSize=12;strokeColor=#FFFFFF;rounded=1;" parent="IH2KLxH-AXLg-ZDoIqro-137" vertex="1">
          <mxGeometry x="150" y="110" width="60" height="40" as="geometry" />
        </mxCell>
        <mxCell id="IH2KLxH-AXLg-ZDoIqro-138" value="" style="fontSize=12;html=1;endArrow=ERzeroToMany;startArrow=ERzeroToOne;rounded=1;exitX=0;exitY=0.5;exitDx=0;exitDy=0;entryX=0.5;entryY=0;entryDx=0;entryDy=0;" parent="1" source="jMxSnKa2UNdFl_6fg3FB-7" target="IH2KLxH-AXLg-ZDoIqro-118" edge="1">
          <mxGeometry width="100" height="100" relative="1" as="geometry">
            <mxPoint x="-166" y="-407" as="sourcePoint" />
            <mxPoint x="-66" y="-507" as="targetPoint" />
            <Array as="points">
              <mxPoint x="-160" y="-507" />
              <mxPoint x="-390" y="-507" />
            </Array>
          </mxGeometry>
        </mxCell>
        <mxCell id="IH2KLxH-AXLg-ZDoIqro-3" value="ROLE" style="ellipse;whiteSpace=wrap;html=1;labelBorderColor=none;fontColor=#FFFFFF;labelBackgroundColor=none;fillColor=#182E3E;strokeColor=#FFFFFF;rounded=1;" parent="1" vertex="1">
          <mxGeometry x="80" y="-1017" width="60" height="40" as="geometry" />
        </mxCell>
        <mxCell id="jMxSnKa2UNdFl_6fg3FB-13" value="USER_NO" style="ellipse;whiteSpace=wrap;html=1;labelBorderColor=none;fontColor=#FFFFFF;labelBackgroundColor=none;fillColor=#182E3E;fontStyle=4;strokeColor=#FFFFFF;rounded=1;" parent="1" vertex="1">
          <mxGeometry x="-140" y="-1017" width="60" height="40" as="geometry" />
        </mxCell>
        <mxCell id="IH2KLxH-AXLg-ZDoIqro-1" value="ID" style="ellipse;whiteSpace=wrap;html=1;labelBorderColor=none;fontColor=#FFFFFF;labelBackgroundColor=none;fillColor=#182E3E;strokeColor=#FFFFFF;rounded=1;" parent="1" vertex="1">
          <mxGeometry x="-71" y="-1017" width="60" height="40" as="geometry" />
        </mxCell>
        <mxCell id="IH2KLxH-AXLg-ZDoIqro-2" value="STATE" style="ellipse;whiteSpace=wrap;html=1;labelBorderColor=none;fontColor=#FFFFFF;labelBackgroundColor=none;fillColor=#182E3E;strokeColor=#FFFFFF;rounded=1;" parent="1" vertex="1">
          <mxGeometry x="10" y="-1017" width="60" height="40" as="geometry" />
        </mxCell>
        <mxCell id="IH2KLxH-AXLg-ZDoIqro-31" value="" style="endArrow=none;html=1;rounded=1;exitX=1;exitY=1;exitDx=0;exitDy=0;entryX=0.5;entryY=0;entryDx=0;entryDy=0;labelBackgroundColor=none;strokeColor=#23445D;fontColor=default;" parent="1" source="IH2KLxH-AXLg-ZDoIqro-22" target="IH2KLxH-AXLg-ZDoIqro-21" edge="1">
          <mxGeometry width="50" height="50" relative="1" as="geometry">
            <mxPoint x="-147" y="-1506" as="sourcePoint" />
            <mxPoint x="17" y="-1346" as="targetPoint" />
          </mxGeometry>
        </mxCell>
        <mxCell id="IH2KLxH-AXLg-ZDoIqro-34" value="" style="endArrow=none;html=1;rounded=1;exitX=0.5;exitY=0;exitDx=0;exitDy=0;entryX=0;entryY=1;entryDx=0;entryDy=0;labelBackgroundColor=none;strokeColor=#23445D;fontColor=default;" parent="1" source="IH2KLxH-AXLg-ZDoIqro-21" target="jMxSnKa2UNdFl_6fg3FB-18" edge="1">
          <mxGeometry width="50" height="50" relative="1" as="geometry">
            <mxPoint x="23" y="-1466" as="sourcePoint" />
            <mxPoint x="27" y="-1446" as="targetPoint" />
          </mxGeometry>
        </mxCell>
        <mxCell id="IH2KLxH-AXLg-ZDoIqro-33" value="" style="endArrow=none;html=1;rounded=1;exitX=0.5;exitY=0;exitDx=0;exitDy=0;entryX=0.5;entryY=1;entryDx=0;entryDy=0;labelBackgroundColor=none;strokeColor=#23445D;fontColor=default;" parent="1" source="IH2KLxH-AXLg-ZDoIqro-21" target="jMxSnKa2UNdFl_6fg3FB-17" edge="1">
          <mxGeometry width="50" height="50" relative="1" as="geometry">
            <mxPoint x="-43" y="-1446" as="sourcePoint" />
            <mxPoint x="23" y="-1466" as="targetPoint" />
          </mxGeometry>
        </mxCell>
        <mxCell id="IH2KLxH-AXLg-ZDoIqro-24" value="BIRTH" style="ellipse;whiteSpace=wrap;html=1;labelBorderColor=none;fontColor=#FFFFFF;labelBackgroundColor=none;fillColor=#182E3E;strokeColor=#FFFFFF;rounded=1;" parent="1" vertex="1">
          <mxGeometry x="-190" y="-1517" width="60" height="40" as="geometry" />
        </mxCell>
        <mxCell id="IH2KLxH-AXLg-ZDoIqro-35" value="" style="endArrow=none;html=1;rounded=1;exitX=0.5;exitY=0;exitDx=0;exitDy=0;entryX=0.5;entryY=1;entryDx=0;entryDy=0;labelBackgroundColor=none;strokeColor=#23445D;fontColor=default;" parent="1" source="IH2KLxH-AXLg-ZDoIqro-21" target="IH2KLxH-AXLg-ZDoIqro-24" edge="1">
          <mxGeometry width="50" height="50" relative="1" as="geometry">
            <mxPoint x="23" y="-1466" as="sourcePoint" />
            <mxPoint x="97" y="-1446" as="targetPoint" />
          </mxGeometry>
        </mxCell>
        <mxCell id="IH2KLxH-AXLg-ZDoIqro-25" value="REGION" style="ellipse;whiteSpace=wrap;html=1;labelBorderColor=none;fontColor=#FFFFFF;labelBackgroundColor=none;fillColor=#182E3E;strokeColor=#FFFFFF;rounded=1;" parent="1" vertex="1">
          <mxGeometry x="-110" y="-1517" width="60" height="40" as="geometry" />
        </mxCell>
        <mxCell id="IH2KLxH-AXLg-ZDoIqro-21" value="&lt;font style=&quot;font-size: 15px;&quot;&gt;USER_PROFILE&lt;/font&gt;" style="rounded=1;whiteSpace=wrap;html=1;fontSize=12;fillColor=#182E3E;fontColor=#FFFFFF;labelBackgroundColor=none;strokeColor=#FFFFFF;" parent="1" vertex="1">
          <mxGeometry x="-60" y="-1337" width="120" height="60" as="geometry" />
        </mxCell>
        <mxCell id="IH2KLxH-AXLg-ZDoIqro-39" value="" style="endArrow=none;html=1;rounded=1;entryX=1;entryY=1;entryDx=0;entryDy=0;exitX=0.5;exitY=0;exitDx=0;exitDy=0;labelBackgroundColor=none;strokeColor=#23445D;fontColor=default;" parent="1" source="IH2KLxH-AXLg-ZDoIqro-21" target="IH2KLxH-AXLg-ZDoIqro-25" edge="1">
          <mxGeometry width="50" height="50" relative="1" as="geometry">
            <mxPoint x="17" y="-1346" as="sourcePoint" />
            <mxPoint x="-13" y="-1396" as="targetPoint" />
          </mxGeometry>
        </mxCell>
        <mxCell id="IH2KLxH-AXLg-ZDoIqro-32" value="" style="endArrow=none;html=1;rounded=1;exitX=0.5;exitY=1;exitDx=0;exitDy=0;entryX=0.5;entryY=0;entryDx=0;entryDy=0;labelBackgroundColor=none;strokeColor=#23445D;fontColor=default;" parent="1" source="IH2KLxH-AXLg-ZDoIqro-23" target="IH2KLxH-AXLg-ZDoIqro-21" edge="1">
          <mxGeometry width="50" height="50" relative="1" as="geometry">
            <mxPoint x="-53" y="-1456" as="sourcePoint" />
            <mxPoint x="-13" y="-1526" as="targetPoint" />
          </mxGeometry>
        </mxCell>
        <mxCell id="IH2KLxH-AXLg-ZDoIqro-37" value="" style="endArrow=none;html=1;rounded=1;entryX=0;entryY=1;entryDx=0;entryDy=0;exitX=0.5;exitY=0;exitDx=0;exitDy=0;labelBackgroundColor=none;strokeColor=#23445D;fontColor=default;" parent="1" source="IH2KLxH-AXLg-ZDoIqro-21" target="IH2KLxH-AXLg-ZDoIqro-27" edge="1">
          <mxGeometry width="50" height="50" relative="1" as="geometry">
            <mxPoint x="23" y="-1466" as="sourcePoint" />
            <mxPoint x="127" y="-1396" as="targetPoint" />
          </mxGeometry>
        </mxCell>
        <mxCell id="IH2KLxH-AXLg-ZDoIqro-27" value="INTRO" style="ellipse;whiteSpace=wrap;html=1;labelBorderColor=none;fontColor=#FFFFFF;labelBackgroundColor=none;fillColor=#182E3E;strokeColor=#FFFFFF;rounded=1;" parent="1" vertex="1">
          <mxGeometry x="50" y="-1517" width="60" height="40" as="geometry" />
        </mxCell>
        <mxCell id="IH2KLxH-AXLg-ZDoIqro-28" value="UPDATE_DT" style="ellipse;whiteSpace=wrap;html=1;labelBorderColor=none;fontColor=#FFFFFF;labelBackgroundColor=none;fillColor=#182E3E;strokeColor=#FFFFFF;rounded=1;fontSize=9;" parent="1" vertex="1">
          <mxGeometry x="130" y="-1517" width="60" height="40" as="geometry" />
        </mxCell>
        <mxCell id="IH2KLxH-AXLg-ZDoIqro-38" value="" style="endArrow=none;html=1;rounded=1;entryX=0.5;entryY=1;entryDx=0;entryDy=0;exitX=0.5;exitY=0;exitDx=0;exitDy=0;labelBackgroundColor=none;strokeColor=#23445D;fontColor=default;" parent="1" source="IH2KLxH-AXLg-ZDoIqro-21" target="IH2KLxH-AXLg-ZDoIqro-26" edge="1">
          <mxGeometry width="50" height="50" relative="1" as="geometry">
            <mxPoint x="23" y="-1466" as="sourcePoint" />
            <mxPoint x="57" y="-1396" as="targetPoint" />
          </mxGeometry>
        </mxCell>
        <mxCell id="IH2KLxH-AXLg-ZDoIqro-26" value="IMG_URL" style="ellipse;whiteSpace=wrap;html=1;labelBorderColor=none;fontColor=#FFFFFF;labelBackgroundColor=none;fillColor=#182E3E;strokeColor=#FFFFFF;rounded=1;" parent="1" vertex="1">
          <mxGeometry x="-30" y="-1517" width="60" height="40" as="geometry" />
        </mxCell>
        <mxCell id="IH2KLxH-AXLg-ZDoIqro-22" value="USER_NO" style="ellipse;whiteSpace=wrap;html=1;labelBorderColor=none;fontColor=#FFFFFF;labelBackgroundColor=none;fillColor=#182E3E;fontStyle=4;strokeColor=#FFFFFF;rounded=1;" parent="1" vertex="1">
          <mxGeometry x="-160" y="-1468" width="60" height="40" as="geometry" />
        </mxCell>
        <mxCell id="jMxSnKa2UNdFl_6fg3FB-17" value="SEX" style="ellipse;whiteSpace=wrap;html=1;labelBorderColor=none;fontColor=#FFFFFF;labelBackgroundColor=none;fillColor=#182E3E;strokeColor=#FFFFFF;rounded=1;" parent="1" vertex="1">
          <mxGeometry x="20" y="-1468" width="60" height="40" as="geometry" />
        </mxCell>
        <mxCell id="IH2KLxH-AXLg-ZDoIqro-23" value="NICKNAME" style="ellipse;whiteSpace=wrap;html=1;labelBorderColor=none;fontColor=#FFFFFF;labelBackgroundColor=none;fillColor=#182E3E;fontSize=10;strokeColor=#FFFFFF;rounded=1;" parent="1" vertex="1">
          <mxGeometry x="-80" y="-1468" width="60" height="40" as="geometry" />
        </mxCell>
        <mxCell id="jMxSnKa2UNdFl_6fg3FB-18" value="AGE" style="ellipse;whiteSpace=wrap;html=1;labelBorderColor=none;fontColor=#FFFFFF;labelBackgroundColor=none;fillColor=#182E3E;strokeColor=#FFFFFF;rounded=1;" parent="1" vertex="1">
          <mxGeometry x="100" y="-1467" width="60" height="40" as="geometry" />
        </mxCell>
        <mxCell id="IH2KLxH-AXLg-ZDoIqro-144" value="" style="group" parent="1" vertex="1" connectable="0">
          <mxGeometry x="221" y="-1427" width="290" height="240" as="geometry" />
        </mxCell>
        <mxCell id="jMxSnKa2UNdFl_6fg3FB-14" value="MAIL" style="ellipse;whiteSpace=wrap;html=1;labelBorderColor=none;fontColor=#FFFFFF;labelBackgroundColor=none;fillColor=#182E3E;strokeColor=#FFFFFF;rounded=1;" parent="IH2KLxH-AXLg-ZDoIqro-144" vertex="1">
          <mxGeometry x="259" y="30" width="60" height="40" as="geometry" />
        </mxCell>
        <mxCell id="IH2KLxH-AXLg-ZDoIqro-9" value="&lt;font style=&quot;font-size: 16px;&quot;&gt;USER_AUTH&lt;/font&gt;" style="rounded=1;whiteSpace=wrap;html=1;fontSize=16;fillColor=#182E3E;fontColor=#FFFFFF;labelBackgroundColor=none;strokeColor=#FFFFFF;" parent="IH2KLxH-AXLg-ZDoIqro-144" vertex="1">
          <mxGeometry y="90" width="120" height="60" as="geometry" />
        </mxCell>
        <mxCell id="IH2KLxH-AXLg-ZDoIqro-10" value="USER_NO" style="ellipse;whiteSpace=wrap;html=1;labelBorderColor=none;fontColor=#FFFFFF;labelBackgroundColor=none;fillColor=#182E3E;fontStyle=4;strokeColor=#FFFFFF;rounded=1;" parent="IH2KLxH-AXLg-ZDoIqro-144" vertex="1">
          <mxGeometry x="189" width="60" height="40" as="geometry" />
        </mxCell>
        <mxCell id="IH2KLxH-AXLg-ZDoIqro-12" value="EXPIRE_DT" style="ellipse;whiteSpace=wrap;html=1;labelBorderColor=none;fontColor=#FFFFFF;labelBackgroundColor=none;fillColor=#182E3E;fontSize=10;strokeColor=#FFFFFF;rounded=1;" parent="IH2KLxH-AXLg-ZDoIqro-144" vertex="1">
          <mxGeometry x="259" y="100" width="60" height="40" as="geometry" />
        </mxCell>
        <mxCell id="IH2KLxH-AXLg-ZDoIqro-13" value="JOIN_DT" style="ellipse;whiteSpace=wrap;html=1;labelBorderColor=none;fontColor=#FFFFFF;labelBackgroundColor=none;fillColor=#182E3E;fontSize=10;strokeColor=#FFFFFF;rounded=1;" parent="IH2KLxH-AXLg-ZDoIqro-144" vertex="1">
          <mxGeometry x="259" y="170" width="60" height="40" as="geometry" />
        </mxCell>
        <mxCell id="IH2KLxH-AXLg-ZDoIqro-16" value="" style="endArrow=none;html=1;rounded=1;entryX=0;entryY=0.5;entryDx=0;entryDy=0;exitX=1;exitY=0.5;exitDx=0;exitDy=0;labelBackgroundColor=none;strokeColor=#23445D;fontColor=default;" parent="IH2KLxH-AXLg-ZDoIqro-144" source="IH2KLxH-AXLg-ZDoIqro-9" target="IH2KLxH-AXLg-ZDoIqro-11" edge="1">
          <mxGeometry width="50" height="50" relative="1" as="geometry">
            <mxPoint x="130" y="95" as="sourcePoint" />
            <mxPoint x="170" y="45" as="targetPoint" />
          </mxGeometry>
        </mxCell>
        <mxCell id="IH2KLxH-AXLg-ZDoIqro-17" value="" style="endArrow=none;html=1;rounded=1;entryX=0;entryY=1;entryDx=0;entryDy=0;exitX=1;exitY=0.5;exitDx=0;exitDy=0;labelBackgroundColor=none;strokeColor=#23445D;fontColor=default;" parent="IH2KLxH-AXLg-ZDoIqro-144" source="IH2KLxH-AXLg-ZDoIqro-9" target="jMxSnKa2UNdFl_6fg3FB-15" edge="1">
          <mxGeometry width="50" height="50" relative="1" as="geometry">
            <mxPoint x="129" y="104" as="sourcePoint" />
            <mxPoint x="170" y="95" as="targetPoint" />
          </mxGeometry>
        </mxCell>
        <mxCell id="IH2KLxH-AXLg-ZDoIqro-19" value="" style="endArrow=none;html=1;rounded=1;entryX=0;entryY=0.5;entryDx=0;entryDy=0;exitX=1;exitY=0.5;exitDx=0;exitDy=0;labelBackgroundColor=none;strokeColor=#23445D;fontColor=default;" parent="IH2KLxH-AXLg-ZDoIqro-144" source="IH2KLxH-AXLg-ZDoIqro-9" target="IH2KLxH-AXLg-ZDoIqro-12" edge="1">
          <mxGeometry width="50" height="50" relative="1" as="geometry">
            <mxPoint x="130" y="131" as="sourcePoint" />
            <mxPoint x="235" y="135" as="targetPoint" />
          </mxGeometry>
        </mxCell>
        <mxCell id="jMxSnKa2UNdFl_6fg3FB-15" value="PHONE" style="ellipse;whiteSpace=wrap;html=1;labelBorderColor=none;fontColor=#FFFFFF;labelBackgroundColor=none;fillColor=#182E3E;strokeColor=#FFFFFF;rounded=1;" parent="IH2KLxH-AXLg-ZDoIqro-144" vertex="1">
          <mxGeometry x="189" y="200" width="60" height="40" as="geometry" />
        </mxCell>
        <mxCell id="IH2KLxH-AXLg-ZDoIqro-11" value="PW" style="ellipse;whiteSpace=wrap;html=1;labelBorderColor=none;fontColor=#FFFFFF;labelBackgroundColor=none;fillColor=#182E3E;strokeColor=#FFFFFF;rounded=1;" parent="IH2KLxH-AXLg-ZDoIqro-144" vertex="1">
          <mxGeometry x="189" y="60" width="60" height="40" as="geometry" />
        </mxCell>
        <mxCell id="IH2KLxH-AXLg-ZDoIqro-141" value="" style="endArrow=none;html=1;rounded=1;entryX=0;entryY=0.5;entryDx=0;entryDy=0;exitX=1;exitY=0.5;exitDx=0;exitDy=0;labelBackgroundColor=none;strokeColor=#23445D;fontColor=default;" parent="IH2KLxH-AXLg-ZDoIqro-144" source="IH2KLxH-AXLg-ZDoIqro-9" target="IH2KLxH-AXLg-ZDoIqro-29" edge="1">
          <mxGeometry width="50" height="50" relative="1" as="geometry">
            <mxPoint x="260" y="-945" as="sourcePoint" />
            <mxPoint x="379" y="-899" as="targetPoint" />
          </mxGeometry>
        </mxCell>
        <mxCell id="IH2KLxH-AXLg-ZDoIqro-143" value="" style="endArrow=none;html=1;rounded=1;entryX=0;entryY=0;entryDx=0;entryDy=0;exitX=1;exitY=0.5;exitDx=0;exitDy=0;labelBackgroundColor=none;strokeColor=#23445D;fontColor=default;" parent="IH2KLxH-AXLg-ZDoIqro-144" source="IH2KLxH-AXLg-ZDoIqro-9" target="IH2KLxH-AXLg-ZDoIqro-13" edge="1">
          <mxGeometry width="50" height="50" relative="1" as="geometry">
            <mxPoint x="130" y="130" as="sourcePoint" />
            <mxPoint x="170" y="170" as="targetPoint" />
          </mxGeometry>
        </mxCell>
        <mxCell id="IH2KLxH-AXLg-ZDoIqro-29" value="NAME" style="ellipse;whiteSpace=wrap;html=1;labelBorderColor=none;fontColor=#FFFFFF;labelBackgroundColor=none;fillColor=#182E3E;strokeColor=#FFFFFF;rounded=1;" parent="IH2KLxH-AXLg-ZDoIqro-144" vertex="1">
          <mxGeometry x="189" y="140" width="60" height="40" as="geometry" />
        </mxCell>
        <mxCell id="IH2KLxH-AXLg-ZDoIqro-18" value="" style="endArrow=none;html=1;rounded=1;entryX=0;entryY=1;entryDx=0;entryDy=0;exitX=1;exitY=0.5;exitDx=0;exitDy=0;labelBackgroundColor=none;strokeColor=#23445D;fontColor=default;" parent="IH2KLxH-AXLg-ZDoIqro-144" source="IH2KLxH-AXLg-ZDoIqro-9" target="jMxSnKa2UNdFl_6fg3FB-14" edge="1">
          <mxGeometry width="50" height="50" relative="1" as="geometry">
            <mxPoint x="270" y="-964" as="sourcePoint" />
            <mxPoint x="314" y="-977" as="targetPoint" />
          </mxGeometry>
        </mxCell>
        <mxCell id="IH2KLxH-AXLg-ZDoIqro-14" value="" style="endArrow=none;html=1;rounded=1;entryX=0;entryY=1;entryDx=0;entryDy=0;exitX=1;exitY=0.5;exitDx=0;exitDy=0;labelBackgroundColor=none;strokeColor=#23445D;fontColor=default;" parent="IH2KLxH-AXLg-ZDoIqro-144" source="IH2KLxH-AXLg-ZDoIqro-9" target="IH2KLxH-AXLg-ZDoIqro-10" edge="1">
          <mxGeometry width="50" height="50" relative="1" as="geometry">
            <mxPoint x="240" y="-845" as="sourcePoint" />
            <mxPoint x="290" y="-895" as="targetPoint" />
          </mxGeometry>
        </mxCell>
        <mxCell id="IH2KLxH-AXLg-ZDoIqro-46" value="USER_NO" style="ellipse;whiteSpace=wrap;html=1;labelBorderColor=none;fontColor=#FFFFFF;labelBackgroundColor=none;fillColor=#182E3E;fontStyle=4;strokeColor=#FFFFFF;rounded=1;" parent="1" vertex="1">
          <mxGeometry x="-430" y="-1447" width="60" height="40" as="geometry" />
        </mxCell>
        <mxCell id="IH2KLxH-AXLg-ZDoIqro-52" value="" style="endArrow=none;html=1;rounded=1;exitX=0.5;exitY=1;exitDx=0;exitDy=0;entryX=0.5;entryY=0;entryDx=0;entryDy=0;labelBackgroundColor=none;strokeColor=#23445D;fontColor=default;" parent="1" source="IH2KLxH-AXLg-ZDoIqro-46" target="IH2KLxH-AXLg-ZDoIqro-45" edge="1">
          <mxGeometry width="50" height="50" relative="1" as="geometry">
            <mxPoint x="-599" y="-2047" as="sourcePoint" />
            <mxPoint x="-549" y="-2097" as="targetPoint" />
          </mxGeometry>
        </mxCell>
        <mxCell id="IH2KLxH-AXLg-ZDoIqro-51" value="FLAG" style="ellipse;whiteSpace=wrap;html=1;labelBorderColor=none;fontColor=#FFFFFF;labelBackgroundColor=none;fillColor=#182E3E;fontSize=11;strokeColor=#FFFFFF;rounded=1;" parent="1" vertex="1">
          <mxGeometry x="-270" y="-1447" width="60" height="40" as="geometry" />
        </mxCell>
        <mxCell id="IH2KLxH-AXLg-ZDoIqro-54" value="" style="endArrow=none;html=1;rounded=1;exitX=0.5;exitY=1;exitDx=0;exitDy=0;entryX=0.5;entryY=0;entryDx=0;entryDy=0;labelBackgroundColor=none;strokeColor=#23445D;fontColor=default;" parent="1" source="IH2KLxH-AXLg-ZDoIqro-51" target="IH2KLxH-AXLg-ZDoIqro-45" edge="1">
          <mxGeometry width="50" height="50" relative="1" as="geometry">
            <mxPoint x="-599" y="-2047" as="sourcePoint" />
            <mxPoint x="-549" y="-2097" as="targetPoint" />
          </mxGeometry>
        </mxCell>
        <mxCell id="IH2KLxH-AXLg-ZDoIqro-145" value="" style="fontSize=12;html=1;endArrow=ERoneToMany;startArrow=ERmandOne;rounded=1;exitX=0.25;exitY=0;exitDx=0;exitDy=0;entryX=0.5;entryY=1;entryDx=0;entryDy=0;" parent="1" source="jMxSnKa2UNdFl_6fg3FB-6" target="IH2KLxH-AXLg-ZDoIqro-45" edge="1">
          <mxGeometry width="100" height="100" relative="1" as="geometry">
            <mxPoint x="-150" y="-917" as="sourcePoint" />
            <mxPoint x="-50" y="-1017" as="targetPoint" />
            <Array as="points">
              <mxPoint x="-60" y="-927" />
              <mxPoint x="-160" y="-927" />
              <mxPoint x="-160" y="-1147" />
              <mxPoint x="-320" y="-1147" />
            </Array>
          </mxGeometry>
        </mxCell>
        <mxCell id="4wrqPvFWdJHmVNuEyCFh-1" value="" style="fontSize=12;html=1;endArrow=ERzeroToMany;startArrow=ERzeroToOne;rounded=0;exitX=0.5;exitY=1;exitDx=0;exitDy=0;entryX=0.5;entryY=0;entryDx=0;entryDy=0;" parent="1" source="jMxSnKa2UNdFl_6fg3FB-6" target="jMxSnKa2UNdFl_6fg3FB-7" edge="1">
          <mxGeometry width="100" height="100" relative="1" as="geometry">
            <mxPoint x="-150" y="-727" as="sourcePoint" />
            <mxPoint x="-50" y="-827" as="targetPoint" />
          </mxGeometry>
        </mxCell>
        <mxCell id="IH2KLxH-AXLg-ZDoIqro-124" value="REQ_MSG" style="ellipse;whiteSpace=wrap;html=1;labelBorderColor=none;fontColor=#FFFFFF;labelBackgroundColor=none;fillColor=#182E3E;fontSize=11;strokeColor=#FFFFFF;rounded=1;" parent="1" vertex="1">
          <mxGeometry x="-540" y="-262" width="60" height="40" as="geometry" />
        </mxCell>
        <mxCell id="IH2KLxH-AXLg-ZDoIqro-127" value="REQ_DT" style="ellipse;whiteSpace=wrap;html=1;labelBorderColor=none;fontColor=#FFFFFF;labelBackgroundColor=none;fillColor=#182E3E;fontSize=12;strokeColor=#FFFFFF;rounded=1;" parent="1" vertex="1">
          <mxGeometry x="-469" y="-262" width="60" height="40" as="geometry" />
        </mxCell>
        <mxCell id="IH2KLxH-AXLg-ZDoIqro-125" value="RES_MSG" style="ellipse;whiteSpace=wrap;html=1;labelBorderColor=none;fontColor=#FFFFFF;labelBackgroundColor=none;fillColor=#182E3E;fontSize=11;strokeColor=#FFFFFF;rounded=1;" parent="1" vertex="1">
          <mxGeometry x="-370" y="-262" width="60" height="40" as="geometry" />
        </mxCell>
        <mxCell id="IH2KLxH-AXLg-ZDoIqro-128" value="RES_DT" style="ellipse;whiteSpace=wrap;html=1;labelBorderColor=none;fontColor=#FFFFFF;labelBackgroundColor=none;fillColor=#182E3E;fontSize=12;strokeColor=#FFFFFF;rounded=1;" parent="1" vertex="1">
          <mxGeometry x="-300" y="-262" width="60" height="40" as="geometry" />
        </mxCell>
        <mxCell id="4wrqPvFWdJHmVNuEyCFh-5" value="" style="fontSize=12;html=1;endArrow=ERzeroToMany;startArrow=ERzeroToOne;rounded=0;exitX=0;exitY=0.5;exitDx=0;exitDy=0;entryX=1;entryY=0.5;entryDx=0;entryDy=0;" parent="1" source="jMxSnKa2UNdFl_6fg3FB-6" target="jMxSnKa2UNdFl_6fg3FB-8" edge="1">
          <mxGeometry width="100" height="100" relative="1" as="geometry">
            <mxPoint x="10" y="-737" as="sourcePoint" />
            <mxPoint x="10" y="-537" as="targetPoint" />
          </mxGeometry>
        </mxCell>
        <mxCell id="4wrqPvFWdJHmVNuEyCFh-6" value="ROUTINE" style="rounded=1;whiteSpace=wrap;html=1;fontSize=25;fillColor=#182E3E;fontColor=#FFFFFF;labelBackgroundColor=none;strokeColor=#FFFFFF;" parent="1" vertex="1">
          <mxGeometry x="320.5" y="-867" width="140" height="80" as="geometry" />
        </mxCell>
        <mxCell id="4wrqPvFWdJHmVNuEyCFh-7" value="" style="fontSize=12;html=1;endArrow=ERzeroToMany;startArrow=ERzeroToOne;rounded=0;exitX=1;exitY=0.5;exitDx=0;exitDy=0;entryX=0;entryY=0.5;entryDx=0;entryDy=0;" parent="1" source="jMxSnKa2UNdFl_6fg3FB-6" target="4wrqPvFWdJHmVNuEyCFh-6" edge="1">
          <mxGeometry width="100" height="100" relative="1" as="geometry">
            <mxPoint x="-110" y="-817" as="sourcePoint" />
            <mxPoint x="-310" y="-817" as="targetPoint" />
          </mxGeometry>
        </mxCell>
        <mxCell id="IH2KLxH-AXLg-ZDoIqro-45" value="&lt;font style=&quot;font-size: 11px;&quot;&gt;USER_AGREEMENT&lt;/font&gt;" style="rounded=1;whiteSpace=wrap;html=1;fontSize=14;fillColor=#182E3E;fontColor=#FFFFFF;labelBackgroundColor=none;strokeColor=#FFFFFF;" parent="1" vertex="1">
          <mxGeometry x="-380" y="-1337" width="120" height="60" as="geometry" />
        </mxCell>
        <mxCell id="IH2KLxH-AXLg-ZDoIqro-47" value="&lt;u&gt;AGREE_ID&lt;/u&gt;" style="ellipse;whiteSpace=wrap;html=1;labelBorderColor=none;fontColor=#FFFFFF;labelBackgroundColor=none;fillColor=#182E3E;fontSize=11;strokeColor=#FFFFFF;rounded=1;" parent="1" vertex="1">
          <mxGeometry x="-350" y="-1446" width="60" height="40" as="geometry" />
        </mxCell>
        <mxCell id="IH2KLxH-AXLg-ZDoIqro-53" value="" style="endArrow=none;html=1;rounded=1;exitX=0.5;exitY=1;exitDx=0;exitDy=0;entryX=0.5;entryY=0;entryDx=0;entryDy=0;labelBackgroundColor=none;strokeColor=#23445D;fontColor=default;" parent="1" source="IH2KLxH-AXLg-ZDoIqro-47" target="IH2KLxH-AXLg-ZDoIqro-45" edge="1">
          <mxGeometry width="50" height="50" relative="1" as="geometry">
            <mxPoint x="-599" y="-2119" as="sourcePoint" />
            <mxPoint x="-549" y="-2169" as="targetPoint" />
          </mxGeometry>
        </mxCell>
        <mxCell id="4wrqPvFWdJHmVNuEyCFh-9" value="CALENDER_FOLLOW" style="rounded=1;whiteSpace=wrap;html=1;fontSize=11;fillColor=#182E3E;fontColor=#FFFFFF;labelBackgroundColor=none;strokeColor=#FFFFFF;" parent="1" vertex="1">
          <mxGeometry x="-770" y="-1037" width="120" height="60" as="geometry" />
        </mxCell>
        <mxCell id="4wrqPvFWdJHmVNuEyCFh-13" value="" style="fontSize=12;html=1;endArrow=ERmandOne;startArrow=ERmandOne;rounded=1;exitX=0.5;exitY=0;exitDx=0;exitDy=0;entryX=1;entryY=0.5;entryDx=0;entryDy=0;" parent="1" source="jMxSnKa2UNdFl_6fg3FB-8" target="4wrqPvFWdJHmVNuEyCFh-9" edge="1">
          <mxGeometry width="100" height="100" relative="1" as="geometry">
            <mxPoint x="-380" y="-857" as="sourcePoint" />
            <mxPoint x="-470" y="-997" as="targetPoint" />
            <Array as="points">
              <mxPoint x="-390" y="-1007" />
            </Array>
          </mxGeometry>
        </mxCell>
        <mxCell id="4wrqPvFWdJHmVNuEyCFh-14" value="CALENDER_DETAIL" style="rounded=1;whiteSpace=wrap;html=1;fontSize=12;fillColor=#182E3E;fontColor=#FFFFFF;labelBackgroundColor=none;strokeColor=#FFFFFF;" parent="1" vertex="1">
          <mxGeometry x="-770.5" y="-677" width="120" height="60" as="geometry" />
        </mxCell>
        <mxCell id="4wrqPvFWdJHmVNuEyCFh-15" value="" style="fontSize=12;html=1;endArrow=ERmandOne;startArrow=ERmandOne;rounded=1;exitX=0.5;exitY=1;exitDx=0;exitDy=0;entryX=1;entryY=0.5;entryDx=0;entryDy=0;" parent="1" source="jMxSnKa2UNdFl_6fg3FB-8" target="4wrqPvFWdJHmVNuEyCFh-14" edge="1">
          <mxGeometry width="100" height="100" relative="1" as="geometry">
            <mxPoint x="-370" y="-557" as="sourcePoint" />
            <mxPoint x="-460" y="-697" as="targetPoint" />
            <Array as="points">
              <mxPoint x="-390" y="-647" />
            </Array>
          </mxGeometry>
        </mxCell>
        <mxCell id="4wrqPvFWdJHmVNuEyCFh-16" value="CALENDER_NO" style="ellipse;whiteSpace=wrap;html=1;labelBorderColor=none;fontColor=#FFFFFF;labelBackgroundColor=none;fillColor=#182E3E;fontSize=8;strokeColor=#FFFFFF;rounded=1;fontStyle=4" parent="1" vertex="1">
          <mxGeometry x="-583" y="-907" width="60" height="40" as="geometry" />
        </mxCell>
        <mxCell id="4wrqPvFWdJHmVNuEyCFh-17" value="TYPE" style="ellipse;whiteSpace=wrap;html=1;labelBorderColor=none;fontColor=#FFFFFF;labelBackgroundColor=none;fillColor=#182E3E;fontSize=11;strokeColor=#FFFFFF;rounded=1;" parent="1" vertex="1">
          <mxGeometry x="-583" y="-847" width="60" height="40" as="geometry" />
        </mxCell>
        <mxCell id="4wrqPvFWdJHmVNuEyCFh-18" value="OWNER" style="ellipse;whiteSpace=wrap;html=1;labelBorderColor=none;fontColor=#FFFFFF;labelBackgroundColor=none;fillColor=#182E3E;fontSize=11;strokeColor=#FFFFFF;rounded=1;" parent="1" vertex="1">
          <mxGeometry x="-583" y="-787" width="60" height="40" as="geometry" />
        </mxCell>
        <mxCell id="4wrqPvFWdJHmVNuEyCFh-19" value="" style="endArrow=none;html=1;rounded=0;entryX=0;entryY=0.5;entryDx=0;entryDy=0;exitX=1;exitY=0.5;exitDx=0;exitDy=0;" parent="1" source="4wrqPvFWdJHmVNuEyCFh-17" target="jMxSnKa2UNdFl_6fg3FB-8" edge="1">
          <mxGeometry width="50" height="50" relative="1" as="geometry">
            <mxPoint x="-520" y="-771" as="sourcePoint" />
            <mxPoint x="-470" y="-821" as="targetPoint" />
          </mxGeometry>
        </mxCell>
        <mxCell id="4wrqPvFWdJHmVNuEyCFh-20" value="" style="endArrow=none;html=1;rounded=0;entryX=0;entryY=0.5;entryDx=0;entryDy=0;exitX=1;exitY=0.5;exitDx=0;exitDy=0;" parent="1" source="4wrqPvFWdJHmVNuEyCFh-18" target="jMxSnKa2UNdFl_6fg3FB-8" edge="1">
          <mxGeometry width="50" height="50" relative="1" as="geometry">
            <mxPoint x="-530" y="-817" as="sourcePoint" />
            <mxPoint x="-450" y="-817" as="targetPoint" />
          </mxGeometry>
        </mxCell>
        <mxCell id="4wrqPvFWdJHmVNuEyCFh-21" value="" style="endArrow=none;html=1;rounded=0;exitX=1;exitY=0.5;exitDx=0;exitDy=0;entryX=0;entryY=0.5;entryDx=0;entryDy=0;" parent="1" source="4wrqPvFWdJHmVNuEyCFh-16" target="jMxSnKa2UNdFl_6fg3FB-8" edge="1">
          <mxGeometry width="50" height="50" relative="1" as="geometry">
            <mxPoint x="-530" y="-757" as="sourcePoint" />
            <mxPoint x="-460" y="-827" as="targetPoint" />
          </mxGeometry>
        </mxCell>
        <mxCell id="4wrqPvFWdJHmVNuEyCFh-22" value="CALENDER_NO" style="ellipse;whiteSpace=wrap;html=1;labelBorderColor=none;fontColor=#FFFFFF;labelBackgroundColor=none;fillColor=#182E3E;fontSize=8;strokeColor=#FFFFFF;rounded=1;fontStyle=4" parent="1" vertex="1">
          <mxGeometry x="-909.5" y="-767" width="60" height="40" as="geometry" />
        </mxCell>
        <mxCell id="4wrqPvFWdJHmVNuEyCFh-23" value="TITLE" style="ellipse;whiteSpace=wrap;html=1;labelBorderColor=none;fontColor=#FFFFFF;labelBackgroundColor=none;fillColor=#182E3E;fontSize=11;strokeColor=#FFFFFF;rounded=1;" parent="1" vertex="1">
          <mxGeometry x="-909.5" y="-717" width="60" height="40" as="geometry" />
        </mxCell>
        <mxCell id="4wrqPvFWdJHmVNuEyCFh-24" value="CONTENT" style="ellipse;whiteSpace=wrap;html=1;labelBorderColor=none;fontColor=#FFFFFF;labelBackgroundColor=none;fillColor=#182E3E;fontSize=11;strokeColor=#FFFFFF;rounded=1;" parent="1" vertex="1">
          <mxGeometry x="-909.5" y="-667" width="60" height="40" as="geometry" />
        </mxCell>
        <mxCell id="4wrqPvFWdJHmVNuEyCFh-25" value="CATEGORY_NO" style="ellipse;whiteSpace=wrap;html=1;labelBorderColor=none;fontColor=#FFFFFF;labelBackgroundColor=none;fillColor=#182E3E;fontSize=7;strokeColor=#FFFFFF;rounded=1;" parent="1" vertex="1">
          <mxGeometry x="-909.5" y="-567" width="60" height="40" as="geometry" />
        </mxCell>
        <mxCell id="4wrqPvFWdJHmVNuEyCFh-26" value="START_DT" style="ellipse;whiteSpace=wrap;html=1;labelBorderColor=none;fontColor=#FFFFFF;labelBackgroundColor=none;fillColor=#182E3E;fontSize=11;strokeColor=#FFFFFF;rounded=1;" parent="1" vertex="1">
          <mxGeometry x="-1020" y="-767" width="60" height="40" as="geometry" />
        </mxCell>
        <mxCell id="4wrqPvFWdJHmVNuEyCFh-27" value="END_DT" style="ellipse;whiteSpace=wrap;html=1;labelBorderColor=none;fontColor=#FFFFFF;labelBackgroundColor=none;fillColor=#182E3E;fontSize=11;strokeColor=#FFFFFF;rounded=1;" parent="1" vertex="1">
          <mxGeometry x="-1040" y="-717" width="60" height="40" as="geometry" />
        </mxCell>
        <mxCell id="4wrqPvFWdJHmVNuEyCFh-28" value="UPDATE_DT" style="ellipse;whiteSpace=wrap;html=1;labelBorderColor=none;fontColor=#FFFFFF;labelBackgroundColor=none;fillColor=#182E3E;fontSize=10;strokeColor=#FFFFFF;rounded=1;" parent="1" vertex="1">
          <mxGeometry x="-1040" y="-617" width="60" height="40" as="geometry" />
        </mxCell>
        <mxCell id="4wrqPvFWdJHmVNuEyCFh-29" value="CREATE_DT" style="ellipse;whiteSpace=wrap;html=1;labelBorderColor=none;fontColor=#FFFFFF;labelBackgroundColor=none;fillColor=#182E3E;fontSize=10;strokeColor=#FFFFFF;rounded=1;" parent="1" vertex="1">
          <mxGeometry x="-1020" y="-567" width="60" height="40" as="geometry" />
        </mxCell>
        <mxCell id="4wrqPvFWdJHmVNuEyCFh-30" value="STATE" style="ellipse;whiteSpace=wrap;html=1;labelBorderColor=none;fontColor=#FFFFFF;labelBackgroundColor=none;fillColor=#182E3E;fontSize=10;strokeColor=#FFFFFF;rounded=1;" parent="1" vertex="1">
          <mxGeometry x="314.25" y="-237" width="60" height="40" as="geometry" />
        </mxCell>
        <mxCell id="4wrqPvFWdJHmVNuEyCFh-33" value="STATE" style="ellipse;whiteSpace=wrap;html=1;labelBorderColor=none;fontColor=#FFFFFF;labelBackgroundColor=none;fillColor=#182E3E;fontSize=11;strokeColor=#FFFFFF;rounded=1;" parent="1" vertex="1">
          <mxGeometry x="-909.5" y="-617" width="60" height="40" as="geometry" />
        </mxCell>
        <mxCell id="4wrqPvFWdJHmVNuEyCFh-34" value="" style="endArrow=none;html=1;rounded=0;exitX=0;exitY=0.5;exitDx=0;exitDy=0;entryX=1;entryY=0.5;entryDx=0;entryDy=0;" parent="1" source="4wrqPvFWdJHmVNuEyCFh-14" target="4wrqPvFWdJHmVNuEyCFh-22" edge="1">
          <mxGeometry width="50" height="50" relative="1" as="geometry">
            <mxPoint x="-809.5" y="-647" as="sourcePoint" />
            <mxPoint x="-779.5" y="-707" as="targetPoint" />
          </mxGeometry>
        </mxCell>
        <mxCell id="4wrqPvFWdJHmVNuEyCFh-35" value="" style="endArrow=none;html=1;rounded=0;exitX=0;exitY=0.5;exitDx=0;exitDy=0;entryX=1;entryY=0.5;entryDx=0;entryDy=0;" parent="1" source="4wrqPvFWdJHmVNuEyCFh-14" target="4wrqPvFWdJHmVNuEyCFh-25" edge="1">
          <mxGeometry width="50" height="50" relative="1" as="geometry">
            <mxPoint x="-809.5" y="-647" as="sourcePoint" />
            <mxPoint x="-839.5" y="-737" as="targetPoint" />
          </mxGeometry>
        </mxCell>
        <mxCell id="4wrqPvFWdJHmVNuEyCFh-36" value="" style="endArrow=none;html=1;rounded=0;exitX=0;exitY=0.5;exitDx=0;exitDy=0;entryX=1;entryY=0.5;entryDx=0;entryDy=0;" parent="1" source="4wrqPvFWdJHmVNuEyCFh-14" target="4wrqPvFWdJHmVNuEyCFh-23" edge="1">
          <mxGeometry width="50" height="50" relative="1" as="geometry">
            <mxPoint x="-809.5" y="-647" as="sourcePoint" />
            <mxPoint x="-829.5" y="-727" as="targetPoint" />
          </mxGeometry>
        </mxCell>
        <mxCell id="4wrqPvFWdJHmVNuEyCFh-37" value="" style="endArrow=none;html=1;rounded=0;exitX=0;exitY=0.5;exitDx=0;exitDy=0;entryX=1;entryY=0.5;entryDx=0;entryDy=0;" parent="1" source="4wrqPvFWdJHmVNuEyCFh-14" target="4wrqPvFWdJHmVNuEyCFh-24" edge="1">
          <mxGeometry width="50" height="50" relative="1" as="geometry">
            <mxPoint x="-809.5" y="-647" as="sourcePoint" />
            <mxPoint x="-839.5" y="-687" as="targetPoint" />
          </mxGeometry>
        </mxCell>
        <mxCell id="4wrqPvFWdJHmVNuEyCFh-38" value="" style="endArrow=none;html=1;rounded=0;exitX=0;exitY=0.5;exitDx=0;exitDy=0;entryX=1;entryY=0.5;entryDx=0;entryDy=0;" parent="1" source="4wrqPvFWdJHmVNuEyCFh-14" target="4wrqPvFWdJHmVNuEyCFh-33" edge="1">
          <mxGeometry width="50" height="50" relative="1" as="geometry">
            <mxPoint x="-809.5" y="-647" as="sourcePoint" />
            <mxPoint x="-829.5" y="-677" as="targetPoint" />
          </mxGeometry>
        </mxCell>
        <mxCell id="4wrqPvFWdJHmVNuEyCFh-41" value="" style="endArrow=none;html=1;rounded=0;exitX=0;exitY=0.5;exitDx=0;exitDy=0;entryX=1;entryY=0.5;entryDx=0;entryDy=0;" parent="1" source="4wrqPvFWdJHmVNuEyCFh-14" target="4wrqPvFWdJHmVNuEyCFh-27" edge="1">
          <mxGeometry width="50" height="50" relative="1" as="geometry">
            <mxPoint x="-809.5" y="-647" as="sourcePoint" />
            <mxPoint x="-919.5" y="-617" as="targetPoint" />
          </mxGeometry>
        </mxCell>
        <mxCell id="4wrqPvFWdJHmVNuEyCFh-44" value="STATUS" style="ellipse;whiteSpace=wrap;html=1;labelBorderColor=none;fontColor=#FFFFFF;labelBackgroundColor=none;fillColor=#182E3E;fontSize=11;strokeColor=#FFFFFF;rounded=1;" parent="1" vertex="1">
          <mxGeometry x="-910" y="-937" width="60" height="40" as="geometry" />
        </mxCell>
        <mxCell id="4wrqPvFWdJHmVNuEyCFh-45" value="&amp;nbsp;FOLLOWER" style="ellipse;whiteSpace=wrap;html=1;labelBorderColor=none;fontColor=#FFFFFF;labelBackgroundColor=none;fillColor=#182E3E;fontSize=10;strokeColor=#FFFFFF;rounded=1;fontStyle=4" parent="1" vertex="1">
          <mxGeometry x="-910" y="-1067" width="60" height="40" as="geometry" />
        </mxCell>
        <mxCell id="4wrqPvFWdJHmVNuEyCFh-46" value="OWNER" style="ellipse;whiteSpace=wrap;html=1;labelBorderColor=none;fontColor=#FFFFFF;labelBackgroundColor=none;fillColor=#182E3E;fontSize=12;strokeColor=#FFFFFF;rounded=1;" parent="1" vertex="1">
          <mxGeometry x="-910" y="-987" width="60" height="40" as="geometry" />
        </mxCell>
        <mxCell id="4wrqPvFWdJHmVNuEyCFh-47" value="REQ_MSG" style="ellipse;whiteSpace=wrap;html=1;labelBorderColor=none;fontColor=#FFFFFF;labelBackgroundColor=none;fillColor=#182E3E;fontSize=11;strokeColor=#FFFFFF;rounded=1;" parent="1" vertex="1">
          <mxGeometry x="-1020" y="-1117" width="60" height="40" as="geometry" />
        </mxCell>
        <mxCell id="4wrqPvFWdJHmVNuEyCFh-48" value="REQ_DT" style="ellipse;whiteSpace=wrap;html=1;labelBorderColor=none;fontColor=#FFFFFF;labelBackgroundColor=none;fillColor=#182E3E;fontSize=12;strokeColor=#FFFFFF;rounded=1;" parent="1" vertex="1">
          <mxGeometry x="-1020" y="-1058" width="60" height="40" as="geometry" />
        </mxCell>
        <mxCell id="4wrqPvFWdJHmVNuEyCFh-49" value="RES_MSG" style="ellipse;whiteSpace=wrap;html=1;labelBorderColor=none;fontColor=#FFFFFF;labelBackgroundColor=none;fillColor=#182E3E;fontSize=11;strokeColor=#FFFFFF;rounded=1;" parent="1" vertex="1">
          <mxGeometry x="-1020" y="-997" width="60" height="40" as="geometry" />
        </mxCell>
        <mxCell id="4wrqPvFWdJHmVNuEyCFh-50" value="RES_DT" style="ellipse;whiteSpace=wrap;html=1;labelBorderColor=none;fontColor=#FFFFFF;labelBackgroundColor=none;fillColor=#182E3E;fontSize=12;strokeColor=#FFFFFF;rounded=1;" parent="1" vertex="1">
          <mxGeometry x="-1020" y="-937" width="60" height="40" as="geometry" />
        </mxCell>
        <mxCell id="4wrqPvFWdJHmVNuEyCFh-51" value="CALENDER_NO" style="ellipse;whiteSpace=wrap;html=1;labelBorderColor=none;fontColor=#FFFFFF;labelBackgroundColor=none;fillColor=#182E3E;fontSize=8;strokeColor=#FFFFFF;rounded=1;fontStyle=4" parent="1" vertex="1">
          <mxGeometry x="-910" y="-1117" width="60" height="40" as="geometry" />
        </mxCell>
        <mxCell id="4wrqPvFWdJHmVNuEyCFh-52" value="" style="endArrow=none;html=1;rounded=0;exitX=1;exitY=0.5;exitDx=0;exitDy=0;entryX=0;entryY=0.5;entryDx=0;entryDy=0;" parent="1" source="4wrqPvFWdJHmVNuEyCFh-51" target="4wrqPvFWdJHmVNuEyCFh-9" edge="1">
          <mxGeometry width="50" height="50" relative="1" as="geometry">
            <mxPoint x="-775" y="-1087" as="sourcePoint" />
            <mxPoint x="-725" y="-1027" as="targetPoint" />
          </mxGeometry>
        </mxCell>
        <mxCell id="4wrqPvFWdJHmVNuEyCFh-53" value="" style="endArrow=none;html=1;rounded=0;exitX=1;exitY=0.5;exitDx=0;exitDy=0;entryX=0;entryY=0.5;entryDx=0;entryDy=0;" parent="1" source="4wrqPvFWdJHmVNuEyCFh-44" target="4wrqPvFWdJHmVNuEyCFh-9" edge="1">
          <mxGeometry width="50" height="50" relative="1" as="geometry">
            <mxPoint x="-800" y="-1087" as="sourcePoint" />
            <mxPoint x="-760" y="-997" as="targetPoint" />
          </mxGeometry>
        </mxCell>
        <mxCell id="4wrqPvFWdJHmVNuEyCFh-54" value="" style="endArrow=none;html=1;rounded=0;exitX=1;exitY=0.5;exitDx=0;exitDy=0;entryX=0;entryY=0.5;entryDx=0;entryDy=0;" parent="1" source="4wrqPvFWdJHmVNuEyCFh-46" target="4wrqPvFWdJHmVNuEyCFh-9" edge="1">
          <mxGeometry width="50" height="50" relative="1" as="geometry">
            <mxPoint x="-800" y="-907" as="sourcePoint" />
            <mxPoint x="-760" y="-997" as="targetPoint" />
          </mxGeometry>
        </mxCell>
        <mxCell id="4wrqPvFWdJHmVNuEyCFh-55" value="" style="endArrow=none;html=1;rounded=0;exitX=1;exitY=0.5;exitDx=0;exitDy=0;entryX=0;entryY=0.5;entryDx=0;entryDy=0;" parent="1" source="4wrqPvFWdJHmVNuEyCFh-45" target="4wrqPvFWdJHmVNuEyCFh-9" edge="1">
          <mxGeometry width="50" height="50" relative="1" as="geometry">
            <mxPoint x="-800" y="-967" as="sourcePoint" />
            <mxPoint x="-760" y="-997" as="targetPoint" />
          </mxGeometry>
        </mxCell>
        <mxCell id="4wrqPvFWdJHmVNuEyCFh-62" value="ALARM_NO" style="ellipse;whiteSpace=wrap;html=1;labelBorderColor=none;fontColor=#FFFFFF;labelBackgroundColor=none;fillColor=#182E3E;fontSize=10;strokeColor=#FFFFFF;rounded=1;" parent="1" vertex="1">
          <mxGeometry x="-1020" y="-667" width="60" height="40" as="geometry" />
        </mxCell>
        <mxCell id="4wrqPvFWdJHmVNuEyCFh-65" value="CALENDER_CATEGORY" style="rounded=1;whiteSpace=wrap;html=1;fontSize=10;fillColor=#182E3E;fontColor=#FFFFFF;labelBackgroundColor=none;strokeColor=#FFFFFF;" parent="1" vertex="1">
          <mxGeometry x="-770" y="-402" width="120" height="60" as="geometry" />
        </mxCell>
        <mxCell id="4wrqPvFWdJHmVNuEyCFh-66" value="CATEGORY_NO" style="ellipse;whiteSpace=wrap;html=1;labelBorderColor=none;fontColor=#FFFFFF;labelBackgroundColor=none;fillColor=#182E3E;fontSize=7;strokeColor=#FFFFFF;rounded=1;fontStyle=4" parent="1" vertex="1">
          <mxGeometry x="-904" y="-467" width="60" height="40" as="geometry" />
        </mxCell>
        <mxCell id="4wrqPvFWdJHmVNuEyCFh-67" value="TITLE" style="ellipse;whiteSpace=wrap;html=1;labelBorderColor=none;fontColor=#FFFFFF;labelBackgroundColor=none;fillColor=#182E3E;fontSize=11;strokeColor=#FFFFFF;rounded=1;" parent="1" vertex="1">
          <mxGeometry x="-904" y="-367" width="60" height="40" as="geometry" />
        </mxCell>
        <mxCell id="4wrqPvFWdJHmVNuEyCFh-68" value="ORDER" style="ellipse;whiteSpace=wrap;html=1;labelBorderColor=none;fontColor=#FFFFFF;labelBackgroundColor=none;fillColor=#182E3E;fontSize=11;strokeColor=#FFFFFF;rounded=1;" parent="1" vertex="1">
          <mxGeometry x="-904" y="-317" width="60" height="40" as="geometry" />
        </mxCell>
        <mxCell id="4wrqPvFWdJHmVNuEyCFh-69" value="OWNER" style="ellipse;whiteSpace=wrap;html=1;labelBorderColor=none;fontColor=#FFFFFF;labelBackgroundColor=none;fillColor=#182E3E;fontSize=11;strokeColor=#FFFFFF;rounded=1;" parent="1" vertex="1">
          <mxGeometry x="-904" y="-417" width="60" height="40" as="geometry" />
        </mxCell>
        <mxCell id="4wrqPvFWdJHmVNuEyCFh-70" value="" style="endArrow=none;html=1;rounded=1;entryX=1;entryY=1;entryDx=0;entryDy=0;exitX=0;exitY=0.5;exitDx=0;exitDy=0;" parent="1" source="4wrqPvFWdJHmVNuEyCFh-65" target="4wrqPvFWdJHmVNuEyCFh-66" edge="1">
          <mxGeometry width="50" height="50" relative="1" as="geometry">
            <mxPoint x="-636" y="-597" as="sourcePoint" />
            <mxPoint x="-587" y="-536" as="targetPoint" />
          </mxGeometry>
        </mxCell>
        <mxCell id="4wrqPvFWdJHmVNuEyCFh-71" value="" style="endArrow=none;html=1;rounded=1;entryX=1;entryY=0.5;entryDx=0;entryDy=0;exitX=0;exitY=0.5;exitDx=0;exitDy=0;" parent="1" source="4wrqPvFWdJHmVNuEyCFh-65" target="4wrqPvFWdJHmVNuEyCFh-69" edge="1">
          <mxGeometry width="50" height="50" relative="1" as="geometry">
            <mxPoint x="-636" y="-357" as="sourcePoint" />
            <mxPoint x="-587" y="-418" as="targetPoint" />
          </mxGeometry>
        </mxCell>
        <mxCell id="4wrqPvFWdJHmVNuEyCFh-72" value="" style="endArrow=none;html=1;rounded=1;entryX=1;entryY=0.5;entryDx=0;entryDy=0;exitX=0;exitY=0.5;exitDx=0;exitDy=0;" parent="1" source="4wrqPvFWdJHmVNuEyCFh-65" target="4wrqPvFWdJHmVNuEyCFh-67" edge="1">
          <mxGeometry width="50" height="50" relative="1" as="geometry">
            <mxPoint x="-626" y="-347" as="sourcePoint" />
            <mxPoint x="-577" y="-408" as="targetPoint" />
          </mxGeometry>
        </mxCell>
        <mxCell id="4wrqPvFWdJHmVNuEyCFh-73" value="" style="endArrow=none;html=1;rounded=1;entryX=1;entryY=0;entryDx=0;entryDy=0;exitX=0;exitY=0.5;exitDx=0;exitDy=0;" parent="1" source="4wrqPvFWdJHmVNuEyCFh-65" target="4wrqPvFWdJHmVNuEyCFh-68" edge="1">
          <mxGeometry width="50" height="50" relative="1" as="geometry">
            <mxPoint x="-636" y="-357" as="sourcePoint" />
            <mxPoint x="-596" y="-332" as="targetPoint" />
          </mxGeometry>
        </mxCell>
        <mxCell id="4wrqPvFWdJHmVNuEyCFh-74" value="" style="fontSize=12;html=1;endArrow=ERmandOne;startArrow=ERmandOne;rounded=1;exitX=0.5;exitY=0;exitDx=0;exitDy=0;entryX=0.5;entryY=1;entryDx=0;entryDy=0;" parent="1" source="4wrqPvFWdJHmVNuEyCFh-65" target="4wrqPvFWdJHmVNuEyCFh-14" edge="1">
          <mxGeometry width="100" height="100" relative="1" as="geometry">
            <mxPoint x="-680.83" y="-502" as="sourcePoint" />
            <mxPoint x="-681.83" y="-592" as="targetPoint" />
            <Array as="points" />
          </mxGeometry>
        </mxCell>
        <mxCell id="2KToigr1VJ64m0hYZ8_5-1" value="ROUTINE_NO" style="ellipse;whiteSpace=wrap;html=1;labelBorderColor=none;fontColor=#FFFFFF;labelBackgroundColor=none;fillColor=#182E3E;fontSize=8;strokeColor=#FFFFFF;rounded=1;fontStyle=4" vertex="1" parent="1">
          <mxGeometry x="523" y="-907" width="60" height="40" as="geometry" />
        </mxCell>
        <mxCell id="2KToigr1VJ64m0hYZ8_5-2" value="TYPE" style="ellipse;whiteSpace=wrap;html=1;labelBorderColor=none;fontColor=#FFFFFF;labelBackgroundColor=none;fillColor=#182E3E;fontSize=11;strokeColor=#FFFFFF;rounded=1;" vertex="1" parent="1">
          <mxGeometry x="523" y="-847" width="60" height="40" as="geometry" />
        </mxCell>
        <mxCell id="2KToigr1VJ64m0hYZ8_5-3" value="" style="endArrow=none;html=1;rounded=1;exitX=1;exitY=0.5;exitDx=0;exitDy=0;entryX=0;entryY=0.5;entryDx=0;entryDy=0;" edge="1" parent="1" target="2KToigr1VJ64m0hYZ8_5-1" source="4wrqPvFWdJHmVNuEyCFh-6">
          <mxGeometry width="50" height="50" relative="1" as="geometry">
            <mxPoint x="640.5" y="-977" as="sourcePoint" />
            <mxPoint x="614.5" y="-1157" as="targetPoint" />
          </mxGeometry>
        </mxCell>
        <mxCell id="2KToigr1VJ64m0hYZ8_5-4" value="" style="endArrow=none;html=1;rounded=1;exitX=1;exitY=0.5;exitDx=0;exitDy=0;entryX=0;entryY=0.5;entryDx=0;entryDy=0;" edge="1" parent="1" target="2KToigr1VJ64m0hYZ8_5-2" source="4wrqPvFWdJHmVNuEyCFh-6">
          <mxGeometry width="50" height="50" relative="1" as="geometry">
            <mxPoint x="640.5" y="-977" as="sourcePoint" />
            <mxPoint x="581.5" y="-1123" as="targetPoint" />
          </mxGeometry>
        </mxCell>
        <mxCell id="2KToigr1VJ64m0hYZ8_5-5" value="OWNER" style="ellipse;whiteSpace=wrap;html=1;labelBorderColor=none;fontColor=#FFFFFF;labelBackgroundColor=none;fillColor=#182E3E;fontSize=11;strokeColor=#FFFFFF;rounded=1;fontStyle=0" vertex="1" parent="1">
          <mxGeometry x="523" y="-787" width="60" height="40" as="geometry" />
        </mxCell>
        <mxCell id="2KToigr1VJ64m0hYZ8_5-6" value="" style="endArrow=none;html=1;rounded=1;exitX=0;exitY=0.5;exitDx=0;exitDy=0;entryX=1;entryY=0.5;entryDx=0;entryDy=0;" edge="1" parent="1" source="2KToigr1VJ64m0hYZ8_5-5" target="4wrqPvFWdJHmVNuEyCFh-6">
          <mxGeometry width="50" height="50" relative="1" as="geometry">
            <mxPoint x="594.5" y="-1077" as="sourcePoint" />
            <mxPoint x="640.5" y="-977" as="targetPoint" />
          </mxGeometry>
        </mxCell>
        <mxCell id="2KToigr1VJ64m0hYZ8_5-7" value="ROUTINE_DETAIL" style="rounded=1;whiteSpace=wrap;html=1;fontSize=13;fillColor=#182E3E;fontColor=#FFFFFF;labelBackgroundColor=none;strokeColor=#FFFFFF;" vertex="1" parent="1">
          <mxGeometry x="670" y="-567" width="120" height="60" as="geometry" />
        </mxCell>
        <mxCell id="2KToigr1VJ64m0hYZ8_5-8" value="" style="fontSize=12;html=1;endArrow=ERmandOne;startArrow=ERmandOne;rounded=1;exitX=0;exitY=0.5;exitDx=0;exitDy=0;entryX=0.5;entryY=1;entryDx=0;entryDy=0;" edge="1" parent="1" source="2KToigr1VJ64m0hYZ8_5-7" target="4wrqPvFWdJHmVNuEyCFh-6">
          <mxGeometry width="100" height="100" relative="1" as="geometry">
            <mxPoint x="467" y="-717" as="sourcePoint" />
            <mxPoint x="296" y="-757" as="targetPoint" />
            <Array as="points">
              <mxPoint x="391" y="-537" />
            </Array>
          </mxGeometry>
        </mxCell>
        <mxCell id="2KToigr1VJ64m0hYZ8_5-9" value="ROUTINE_FOLLOW" style="rounded=1;whiteSpace=wrap;html=1;fontSize=13;fillColor=#182E3E;fontColor=#FFFFFF;labelBackgroundColor=none;strokeColor=#FFFFFF;" vertex="1" parent="1">
          <mxGeometry x="670" y="-1107" width="120" height="60" as="geometry" />
        </mxCell>
        <mxCell id="2KToigr1VJ64m0hYZ8_5-10" value="" style="fontSize=12;html=1;endArrow=ERmandOne;startArrow=ERmandOne;rounded=1;exitX=0.5;exitY=0;exitDx=0;exitDy=0;entryX=0;entryY=0.5;entryDx=0;entryDy=0;" edge="1" parent="1" source="4wrqPvFWdJHmVNuEyCFh-6" target="2KToigr1VJ64m0hYZ8_5-9">
          <mxGeometry width="100" height="100" relative="1" as="geometry">
            <mxPoint x="396" y="-897" as="sourcePoint" />
            <mxPoint x="306" y="-1037" as="targetPoint" />
            <Array as="points">
              <mxPoint x="390" y="-1077" />
            </Array>
          </mxGeometry>
        </mxCell>
        <mxCell id="2KToigr1VJ64m0hYZ8_5-19" value="" style="endArrow=none;html=1;rounded=1;entryX=0;entryY=0.5;entryDx=0;entryDy=0;exitX=1;exitY=0.5;exitDx=0;exitDy=0;" edge="1" parent="1" target="2KToigr1VJ64m0hYZ8_5-34" source="2KToigr1VJ64m0hYZ8_5-7">
          <mxGeometry width="50" height="50" relative="1" as="geometry">
            <mxPoint x="790" y="-477" as="sourcePoint" />
            <mxPoint x="839" y="-417" as="targetPoint" />
          </mxGeometry>
        </mxCell>
        <mxCell id="2KToigr1VJ64m0hYZ8_5-20" value="ROUTINE__NO" style="ellipse;whiteSpace=wrap;html=1;labelBorderColor=none;fontColor=#FFFFFF;labelBackgroundColor=none;fillColor=#182E3E;fontSize=7;strokeColor=#FFFFFF;rounded=1;fontStyle=4" vertex="1" parent="1">
          <mxGeometry x="860" y="-647" width="60" height="40" as="geometry" />
        </mxCell>
        <mxCell id="2KToigr1VJ64m0hYZ8_5-21" value="CATEGORY_NO" style="ellipse;whiteSpace=wrap;html=1;labelBorderColor=none;fontColor=#FFFFFF;labelBackgroundColor=none;fillColor=#182E3E;fontSize=7;strokeColor=#FFFFFF;rounded=1;" vertex="1" parent="1">
          <mxGeometry x="860" y="-447" width="60" height="40" as="geometry" />
        </mxCell>
        <mxCell id="2KToigr1VJ64m0hYZ8_5-22" value="FAVORITES" style="ellipse;whiteSpace=wrap;html=1;labelBorderColor=none;fontColor=#FFFFFF;labelBackgroundColor=none;fillColor=#182E3E;fontSize=10;strokeColor=#FFFFFF;rounded=1;" vertex="1" parent="1">
          <mxGeometry x="1030" y="-637" width="60" height="40" as="geometry" />
        </mxCell>
        <mxCell id="2KToigr1VJ64m0hYZ8_5-23" value="" style="endArrow=none;html=1;rounded=1;entryX=0;entryY=1;entryDx=0;entryDy=0;exitX=1;exitY=0.5;exitDx=0;exitDy=0;" edge="1" parent="1" target="2KToigr1VJ64m0hYZ8_5-20" source="2KToigr1VJ64m0hYZ8_5-7">
          <mxGeometry width="50" height="50" relative="1" as="geometry">
            <mxPoint x="790" y="-477" as="sourcePoint" />
            <mxPoint x="829.5" y="-527" as="targetPoint" />
          </mxGeometry>
        </mxCell>
        <mxCell id="2KToigr1VJ64m0hYZ8_5-24" value="" style="endArrow=none;html=1;rounded=1;entryX=0;entryY=0.5;entryDx=0;entryDy=0;exitX=1;exitY=0.5;exitDx=0;exitDy=0;" edge="1" parent="1" target="2KToigr1VJ64m0hYZ8_5-33" source="2KToigr1VJ64m0hYZ8_5-7">
          <mxGeometry width="50" height="50" relative="1" as="geometry">
            <mxPoint x="790" y="-477" as="sourcePoint" />
            <mxPoint x="848.5" y="-538" as="targetPoint" />
          </mxGeometry>
        </mxCell>
        <mxCell id="2KToigr1VJ64m0hYZ8_5-25" value="" style="endArrow=none;html=1;rounded=1;entryX=0;entryY=0.5;entryDx=0;entryDy=0;exitX=1;exitY=0.5;exitDx=0;exitDy=0;" edge="1" parent="1" target="2KToigr1VJ64m0hYZ8_5-32" source="2KToigr1VJ64m0hYZ8_5-7">
          <mxGeometry width="50" height="50" relative="1" as="geometry">
            <mxPoint x="790" y="-477" as="sourcePoint" />
            <mxPoint x="848.5" y="-488" as="targetPoint" />
          </mxGeometry>
        </mxCell>
        <mxCell id="2KToigr1VJ64m0hYZ8_5-26" value="" style="endArrow=none;html=1;rounded=1;entryX=0;entryY=0;entryDx=0;entryDy=0;exitX=1;exitY=0.5;exitDx=0;exitDy=0;" edge="1" parent="1" target="2KToigr1VJ64m0hYZ8_5-21" source="2KToigr1VJ64m0hYZ8_5-7">
          <mxGeometry width="50" height="50" relative="1" as="geometry">
            <mxPoint x="790" y="-477" as="sourcePoint" />
            <mxPoint x="858.5" y="-478" as="targetPoint" />
          </mxGeometry>
        </mxCell>
        <mxCell id="2KToigr1VJ64m0hYZ8_5-27" value="CREATE_DT" style="ellipse;whiteSpace=wrap;html=1;labelBorderColor=none;fontColor=#FFFFFF;labelBackgroundColor=none;fillColor=#182E3E;fontSize=10;strokeColor=#FFFFFF;rounded=1;" vertex="1" parent="1">
          <mxGeometry x="1030" y="-527" width="60" height="40" as="geometry" />
        </mxCell>
        <mxCell id="2KToigr1VJ64m0hYZ8_5-28" value="UPDATE_DT" style="ellipse;whiteSpace=wrap;html=1;labelBorderColor=none;fontColor=#FFFFFF;labelBackgroundColor=none;fillColor=#182E3E;fontSize=10;strokeColor=#FFFFFF;rounded=1;" vertex="1" parent="1">
          <mxGeometry x="1030" y="-587" width="60" height="40" as="geometry" />
        </mxCell>
        <mxCell id="2KToigr1VJ64m0hYZ8_5-29" value="" style="endArrow=none;html=1;rounded=1;entryX=0;entryY=0.5;entryDx=0;entryDy=0;exitX=1;exitY=0.5;exitDx=0;exitDy=0;" edge="1" parent="1" target="2KToigr1VJ64m0hYZ8_5-22" source="2KToigr1VJ64m0hYZ8_5-7">
          <mxGeometry width="50" height="50" relative="1" as="geometry">
            <mxPoint x="790" y="-477" as="sourcePoint" />
            <mxPoint x="848.5" y="-538" as="targetPoint" />
          </mxGeometry>
        </mxCell>
        <mxCell id="2KToigr1VJ64m0hYZ8_5-30" value="" style="endArrow=none;html=1;rounded=1;entryX=0;entryY=0.5;entryDx=0;entryDy=0;exitX=1;exitY=0.5;exitDx=0;exitDy=0;" edge="1" parent="1" target="2KToigr1VJ64m0hYZ8_5-28" source="2KToigr1VJ64m0hYZ8_5-7">
          <mxGeometry width="50" height="50" relative="1" as="geometry">
            <mxPoint x="790" y="-477" as="sourcePoint" />
            <mxPoint x="919.5" y="-527" as="targetPoint" />
          </mxGeometry>
        </mxCell>
        <mxCell id="2KToigr1VJ64m0hYZ8_5-31" value="" style="endArrow=none;html=1;rounded=1;entryX=0;entryY=0.5;entryDx=0;entryDy=0;exitX=1;exitY=0.5;exitDx=0;exitDy=0;" edge="1" parent="1" target="2KToigr1VJ64m0hYZ8_5-27" source="2KToigr1VJ64m0hYZ8_5-7">
          <mxGeometry width="50" height="50" relative="1" as="geometry">
            <mxPoint x="790" y="-477" as="sourcePoint" />
            <mxPoint x="919.5" y="-477" as="targetPoint" />
          </mxGeometry>
        </mxCell>
        <mxCell id="2KToigr1VJ64m0hYZ8_5-32" value="CONTENT" style="ellipse;whiteSpace=wrap;html=1;labelBorderColor=none;fontColor=#FFFFFF;labelBackgroundColor=none;fillColor=#182E3E;fontSize=11;strokeColor=#FFFFFF;rounded=1;" vertex="1" parent="1">
          <mxGeometry x="860" y="-497" width="60" height="40" as="geometry" />
        </mxCell>
        <mxCell id="2KToigr1VJ64m0hYZ8_5-33" value="TITLE" style="ellipse;whiteSpace=wrap;html=1;labelBorderColor=none;fontColor=#FFFFFF;labelBackgroundColor=none;fillColor=#182E3E;fontSize=11;strokeColor=#FFFFFF;rounded=1;" vertex="1" parent="1">
          <mxGeometry x="860" y="-597" width="60" height="40" as="geometry" />
        </mxCell>
        <mxCell id="2KToigr1VJ64m0hYZ8_5-34" value="STATE" style="ellipse;whiteSpace=wrap;html=1;labelBorderColor=none;fontColor=#FFFFFF;labelBackgroundColor=none;fillColor=#182E3E;fontSize=10;strokeColor=#FFFFFF;rounded=1;" vertex="1" parent="1">
          <mxGeometry x="1030" y="-477" width="60" height="40" as="geometry" />
        </mxCell>
        <mxCell id="2KToigr1VJ64m0hYZ8_5-43" value="" style="endArrow=none;html=1;rounded=0;exitX=0;exitY=0;exitDx=0;exitDy=0;entryX=1;entryY=0.5;entryDx=0;entryDy=0;" edge="1" parent="1" source="2KToigr1VJ64m0hYZ8_5-53" target="2KToigr1VJ64m0hYZ8_5-9">
          <mxGeometry width="50" height="50" relative="1" as="geometry">
            <mxPoint x="979.5" y="-1027" as="sourcePoint" />
            <mxPoint x="999.5" y="-1077" as="targetPoint" />
          </mxGeometry>
        </mxCell>
        <mxCell id="2KToigr1VJ64m0hYZ8_5-44" value="" style="endArrow=none;html=1;rounded=0;exitX=0;exitY=1;exitDx=0;exitDy=0;entryX=1;entryY=0.5;entryDx=0;entryDy=0;" edge="1" parent="1" source="2KToigr1VJ64m0hYZ8_5-50" target="2KToigr1VJ64m0hYZ8_5-9">
          <mxGeometry width="50" height="50" relative="1" as="geometry">
            <mxPoint x="989.5" y="-1017" as="sourcePoint" />
            <mxPoint x="999.5" y="-1077" as="targetPoint" />
          </mxGeometry>
        </mxCell>
        <mxCell id="2KToigr1VJ64m0hYZ8_5-45" value="" style="endArrow=none;html=1;rounded=0;exitX=0;exitY=0.5;exitDx=0;exitDy=0;entryX=1;entryY=0.5;entryDx=0;entryDy=0;" edge="1" parent="1" source="2KToigr1VJ64m0hYZ8_5-51" target="2KToigr1VJ64m0hYZ8_5-9">
          <mxGeometry width="50" height="50" relative="1" as="geometry">
            <mxPoint x="880.5" y="-1084" as="sourcePoint" />
            <mxPoint x="999.5" y="-1077" as="targetPoint" />
          </mxGeometry>
        </mxCell>
        <mxCell id="2KToigr1VJ64m0hYZ8_5-46" value="" style="endArrow=none;html=1;rounded=0;exitX=0;exitY=0.5;exitDx=0;exitDy=0;entryX=1;entryY=0.5;entryDx=0;entryDy=0;" edge="1" parent="1" source="2KToigr1VJ64m0hYZ8_5-48" target="2KToigr1VJ64m0hYZ8_5-9">
          <mxGeometry width="50" height="50" relative="1" as="geometry">
            <mxPoint x="889.5" y="-1098" as="sourcePoint" />
            <mxPoint x="999.5" y="-1077" as="targetPoint" />
          </mxGeometry>
        </mxCell>
        <mxCell id="2KToigr1VJ64m0hYZ8_5-47" value="STATUS" style="ellipse;whiteSpace=wrap;html=1;labelBorderColor=none;fontColor=#FFFFFF;labelBackgroundColor=none;fillColor=#182E3E;fontSize=11;strokeColor=#FFFFFF;rounded=1;" vertex="1" parent="1">
          <mxGeometry x="860" y="-1007" width="60" height="40" as="geometry" />
        </mxCell>
        <mxCell id="2KToigr1VJ64m0hYZ8_5-48" value="&amp;nbsp;FOLLOWER" style="ellipse;whiteSpace=wrap;html=1;labelBorderColor=none;fontColor=#FFFFFF;labelBackgroundColor=none;fillColor=#182E3E;fontSize=10;strokeColor=#FFFFFF;rounded=1;fontStyle=4" vertex="1" parent="1">
          <mxGeometry x="860" y="-1137" width="60" height="40" as="geometry" />
        </mxCell>
        <mxCell id="2KToigr1VJ64m0hYZ8_5-49" value="OWNER" style="ellipse;whiteSpace=wrap;html=1;labelBorderColor=none;fontColor=#FFFFFF;labelBackgroundColor=none;fillColor=#182E3E;fontSize=12;strokeColor=#FFFFFF;rounded=1;" vertex="1" parent="1">
          <mxGeometry x="860" y="-1057" width="60" height="40" as="geometry" />
        </mxCell>
        <mxCell id="2KToigr1VJ64m0hYZ8_5-50" value="REQ_MSG" style="ellipse;whiteSpace=wrap;html=1;labelBorderColor=none;fontColor=#FFFFFF;labelBackgroundColor=none;fillColor=#182E3E;fontSize=11;strokeColor=#FFFFFF;rounded=1;" vertex="1" parent="1">
          <mxGeometry x="960" y="-1187" width="60" height="40" as="geometry" />
        </mxCell>
        <mxCell id="2KToigr1VJ64m0hYZ8_5-51" value="REQ_DT" style="ellipse;whiteSpace=wrap;html=1;labelBorderColor=none;fontColor=#FFFFFF;labelBackgroundColor=none;fillColor=#182E3E;fontSize=12;strokeColor=#FFFFFF;rounded=1;" vertex="1" parent="1">
          <mxGeometry x="960" y="-1128" width="60" height="40" as="geometry" />
        </mxCell>
        <mxCell id="2KToigr1VJ64m0hYZ8_5-52" value="RES_MSG" style="ellipse;whiteSpace=wrap;html=1;labelBorderColor=none;fontColor=#FFFFFF;labelBackgroundColor=none;fillColor=#182E3E;fontSize=11;strokeColor=#FFFFFF;rounded=1;" vertex="1" parent="1">
          <mxGeometry x="960" y="-1067" width="60" height="40" as="geometry" />
        </mxCell>
        <mxCell id="2KToigr1VJ64m0hYZ8_5-53" value="RES_DT" style="ellipse;whiteSpace=wrap;html=1;labelBorderColor=none;fontColor=#FFFFFF;labelBackgroundColor=none;fillColor=#182E3E;fontSize=12;strokeColor=#FFFFFF;rounded=1;" vertex="1" parent="1">
          <mxGeometry x="960" y="-1007" width="60" height="40" as="geometry" />
        </mxCell>
        <mxCell id="2KToigr1VJ64m0hYZ8_5-54" value="ROUTINE_NO" style="ellipse;whiteSpace=wrap;html=1;labelBorderColor=none;fontColor=#FFFFFF;labelBackgroundColor=none;fillColor=#182E3E;fontSize=8;strokeColor=#FFFFFF;rounded=1;fontStyle=4" vertex="1" parent="1">
          <mxGeometry x="860" y="-1187" width="60" height="40" as="geometry" />
        </mxCell>
        <mxCell id="2KToigr1VJ64m0hYZ8_5-55" value="" style="endArrow=none;html=1;rounded=0;exitX=0;exitY=0.5;exitDx=0;exitDy=0;entryX=1;entryY=0.5;entryDx=0;entryDy=0;" edge="1" parent="1" source="2KToigr1VJ64m0hYZ8_5-54" target="2KToigr1VJ64m0hYZ8_5-9">
          <mxGeometry width="50" height="50" relative="1" as="geometry">
            <mxPoint x="994.5" y="-1157" as="sourcePoint" />
            <mxPoint x="999.5" y="-1077" as="targetPoint" />
          </mxGeometry>
        </mxCell>
        <mxCell id="2KToigr1VJ64m0hYZ8_5-56" value="" style="endArrow=none;html=1;rounded=0;exitX=0;exitY=0.5;exitDx=0;exitDy=0;entryX=1;entryY=0.5;entryDx=0;entryDy=0;" edge="1" parent="1" source="2KToigr1VJ64m0hYZ8_5-47" target="2KToigr1VJ64m0hYZ8_5-9">
          <mxGeometry width="50" height="50" relative="1" as="geometry">
            <mxPoint x="969.5" y="-1157" as="sourcePoint" />
            <mxPoint x="999.5" y="-1077" as="targetPoint" />
          </mxGeometry>
        </mxCell>
        <mxCell id="2KToigr1VJ64m0hYZ8_5-57" value="" style="endArrow=none;html=1;rounded=0;exitX=0;exitY=0.5;exitDx=0;exitDy=0;entryX=1;entryY=0.5;entryDx=0;entryDy=0;" edge="1" parent="1" source="2KToigr1VJ64m0hYZ8_5-49" target="2KToigr1VJ64m0hYZ8_5-9">
          <mxGeometry width="50" height="50" relative="1" as="geometry">
            <mxPoint x="969.5" y="-977" as="sourcePoint" />
            <mxPoint x="999.5" y="-1077" as="targetPoint" />
          </mxGeometry>
        </mxCell>
        <mxCell id="2KToigr1VJ64m0hYZ8_5-58" value="" style="endArrow=none;html=1;rounded=0;exitX=0;exitY=0.5;exitDx=0;exitDy=0;entryX=1;entryY=0.5;entryDx=0;entryDy=0;" edge="1" parent="1" source="2KToigr1VJ64m0hYZ8_5-52" target="2KToigr1VJ64m0hYZ8_5-9">
          <mxGeometry width="50" height="50" relative="1" as="geometry">
            <mxPoint x="969.5" y="-1037" as="sourcePoint" />
            <mxPoint x="999.5" y="-1077" as="targetPoint" />
          </mxGeometry>
        </mxCell>
        <mxCell id="2KToigr1VJ64m0hYZ8_5-60" value="ROUTINE_LOG" style="rounded=1;whiteSpace=wrap;html=1;fontSize=13;fillColor=#182E3E;fontColor=#FFFFFF;labelBackgroundColor=none;strokeColor=#FFFFFF;" vertex="1" parent="1">
          <mxGeometry x="670" y="-857" width="120" height="60" as="geometry" />
        </mxCell>
        <mxCell id="2KToigr1VJ64m0hYZ8_5-63" value="" style="endArrow=none;html=1;rounded=1;entryX=0.5;entryY=0;entryDx=0;entryDy=0;exitX=0.5;exitY=1;exitDx=0;exitDy=0;" edge="1" parent="1" source="IH2KLxH-AXLg-ZDoIqro-90" target="IH2KLxH-AXLg-ZDoIqro-106">
          <mxGeometry width="50" height="50" relative="1" as="geometry">
            <mxPoint x="320.5" y="-207" as="sourcePoint" />
            <mxPoint x="710" y="-147" as="targetPoint" />
          </mxGeometry>
        </mxCell>
        <mxCell id="IH2KLxH-AXLg-ZDoIqro-106" value="UPDATE_DT" style="ellipse;whiteSpace=wrap;html=1;labelBorderColor=none;fontColor=#FFFFFF;labelBackgroundColor=none;fillColor=#182E3E;fontSize=10;strokeColor=#FFFFFF;rounded=1;" parent="1" vertex="1">
          <mxGeometry x="484.75" y="-237" width="60" height="40" as="geometry" />
        </mxCell>
        <mxCell id="2KToigr1VJ64m0hYZ8_5-64" value="" style="fontSize=12;html=1;endArrow=ERmandOne;startArrow=ERmandOne;rounded=1;entryX=0.75;entryY=1;entryDx=0;entryDy=0;exitX=0;exitY=0.5;exitDx=0;exitDy=0;" edge="1" parent="1" source="2KToigr1VJ64m0hYZ8_5-60" target="4wrqPvFWdJHmVNuEyCFh-6">
          <mxGeometry width="100" height="100" relative="1" as="geometry">
            <mxPoint x="680" y="-717" as="sourcePoint" />
            <mxPoint x="470" y="-777" as="targetPoint" />
            <Array as="points">
              <mxPoint x="620" y="-827" />
              <mxPoint x="620" y="-717" />
              <mxPoint x="426" y="-717" />
            </Array>
          </mxGeometry>
        </mxCell>
        <mxCell id="2KToigr1VJ64m0hYZ8_5-66" value="DAY" style="ellipse;whiteSpace=wrap;html=1;labelBorderColor=none;fontColor=#FFFFFF;labelBackgroundColor=none;fillColor=#182E3E;fontSize=10;strokeColor=#FFFFFF;rounded=1;" vertex="1" parent="1">
          <mxGeometry x="940" y="-637" width="60" height="40" as="geometry" />
        </mxCell>
        <mxCell id="2KToigr1VJ64m0hYZ8_5-67" value="END_DT" style="ellipse;whiteSpace=wrap;html=1;labelBorderColor=none;fontColor=#FFFFFF;labelBackgroundColor=none;fillColor=#182E3E;fontSize=10;strokeColor=#FFFFFF;rounded=1;" vertex="1" parent="1">
          <mxGeometry x="940" y="-527" width="60" height="40" as="geometry" />
        </mxCell>
        <mxCell id="2KToigr1VJ64m0hYZ8_5-68" value="START_DT" style="ellipse;whiteSpace=wrap;html=1;labelBorderColor=none;fontColor=#FFFFFF;labelBackgroundColor=none;fillColor=#182E3E;fontSize=10;strokeColor=#FFFFFF;rounded=1;" vertex="1" parent="1">
          <mxGeometry x="940" y="-587" width="60" height="40" as="geometry" />
        </mxCell>
        <mxCell id="2KToigr1VJ64m0hYZ8_5-69" value="ALARM" style="ellipse;whiteSpace=wrap;html=1;labelBorderColor=none;fontColor=#FFFFFF;labelBackgroundColor=none;fillColor=#182E3E;fontSize=10;strokeColor=#FFFFFF;rounded=1;" vertex="1" parent="1">
          <mxGeometry x="940" y="-477" width="60" height="40" as="geometry" />
        </mxCell>
      </root>
    </mxGraphModel>
  </diagram>
  <diagram id="R2lEEEUBdFMjLlhIrx00" name="Page-1">
    <mxGraphModel dx="1434" dy="738" grid="1" gridSize="10" guides="1" tooltips="1" connect="1" arrows="1" fold="1" page="1" pageScale="1" pageWidth="850" pageHeight="1100" math="0" shadow="0" extFonts="Permanent Marker^https://fonts.googleapis.com/css?family=Permanent+Marker">
      <root>
        <mxCell id="0" />
        <mxCell id="1" parent="0" />
        <mxCell id="C-vyLk0tnHw3VtMMgP7b-1" value="" style="edgeStyle=entityRelationEdgeStyle;endArrow=ERzeroToMany;startArrow=ERone;endFill=1;startFill=0;" parent="1" source="C-vyLk0tnHw3VtMMgP7b-24" target="C-vyLk0tnHw3VtMMgP7b-6" edge="1">
          <mxGeometry width="100" height="100" relative="1" as="geometry">
            <mxPoint x="340" y="720" as="sourcePoint" />
            <mxPoint x="440" y="620" as="targetPoint" />
          </mxGeometry>
        </mxCell>
        <mxCell id="C-vyLk0tnHw3VtMMgP7b-12" value="" style="edgeStyle=entityRelationEdgeStyle;endArrow=ERzeroToMany;startArrow=ERone;endFill=1;startFill=0;" parent="1" source="C-vyLk0tnHw3VtMMgP7b-3" target="C-vyLk0tnHw3VtMMgP7b-17" edge="1">
          <mxGeometry width="100" height="100" relative="1" as="geometry">
            <mxPoint x="400" y="180" as="sourcePoint" />
            <mxPoint x="460" y="205" as="targetPoint" />
          </mxGeometry>
        </mxCell>
        <mxCell id="C-vyLk0tnHw3VtMMgP7b-2" value="Orders" style="shape=table;startSize=30;container=1;collapsible=1;childLayout=tableLayout;fixedRows=1;rowLines=0;fontStyle=1;align=center;resizeLast=1;" parent="1" vertex="1">
          <mxGeometry x="450" y="120" width="250" height="130" as="geometry" />
        </mxCell>
        <mxCell id="C-vyLk0tnHw3VtMMgP7b-3" value="" style="shape=partialRectangle;collapsible=0;dropTarget=0;pointerEvents=0;fillColor=none;points=[[0,0.5],[1,0.5]];portConstraint=eastwest;top=0;left=0;right=0;bottom=1;" parent="C-vyLk0tnHw3VtMMgP7b-2" vertex="1">
          <mxGeometry y="30" width="250" height="30" as="geometry" />
        </mxCell>
        <mxCell id="C-vyLk0tnHw3VtMMgP7b-4" value="PK" style="shape=partialRectangle;overflow=hidden;connectable=0;fillColor=none;top=0;left=0;bottom=0;right=0;fontStyle=1;" parent="C-vyLk0tnHw3VtMMgP7b-3" vertex="1">
          <mxGeometry width="30" height="30" as="geometry" />
        </mxCell>
        <mxCell id="C-vyLk0tnHw3VtMMgP7b-5" value="order_id int NOT NULL " style="shape=partialRectangle;overflow=hidden;connectable=0;fillColor=none;top=0;left=0;bottom=0;right=0;align=left;spacingLeft=6;fontStyle=5;" parent="C-vyLk0tnHw3VtMMgP7b-3" vertex="1">
          <mxGeometry x="30" width="220" height="30" as="geometry" />
        </mxCell>
        <mxCell id="C-vyLk0tnHw3VtMMgP7b-6" value="" style="shape=partialRectangle;collapsible=0;dropTarget=0;pointerEvents=0;fillColor=none;points=[[0,0.5],[1,0.5]];portConstraint=eastwest;top=0;left=0;right=0;bottom=0;" parent="C-vyLk0tnHw3VtMMgP7b-2" vertex="1">
          <mxGeometry y="60" width="250" height="30" as="geometry" />
        </mxCell>
        <mxCell id="C-vyLk0tnHw3VtMMgP7b-7" value="FK1" style="shape=partialRectangle;overflow=hidden;connectable=0;fillColor=none;top=0;left=0;bottom=0;right=0;" parent="C-vyLk0tnHw3VtMMgP7b-6" vertex="1">
          <mxGeometry width="30" height="30" as="geometry" />
        </mxCell>
        <mxCell id="C-vyLk0tnHw3VtMMgP7b-8" value="customer_id int NOT NULL" style="shape=partialRectangle;overflow=hidden;connectable=0;fillColor=none;top=0;left=0;bottom=0;right=0;align=left;spacingLeft=6;" parent="C-vyLk0tnHw3VtMMgP7b-6" vertex="1">
          <mxGeometry x="30" width="220" height="30" as="geometry" />
        </mxCell>
        <mxCell id="C-vyLk0tnHw3VtMMgP7b-9" value="" style="shape=partialRectangle;collapsible=0;dropTarget=0;pointerEvents=0;fillColor=none;points=[[0,0.5],[1,0.5]];portConstraint=eastwest;top=0;left=0;right=0;bottom=0;" parent="C-vyLk0tnHw3VtMMgP7b-2" vertex="1">
          <mxGeometry y="90" width="250" height="30" as="geometry" />
        </mxCell>
        <mxCell id="C-vyLk0tnHw3VtMMgP7b-10" value="" style="shape=partialRectangle;overflow=hidden;connectable=0;fillColor=none;top=0;left=0;bottom=0;right=0;" parent="C-vyLk0tnHw3VtMMgP7b-9" vertex="1">
          <mxGeometry width="30" height="30" as="geometry" />
        </mxCell>
        <mxCell id="C-vyLk0tnHw3VtMMgP7b-11" value="order_date date NOT NULL" style="shape=partialRectangle;overflow=hidden;connectable=0;fillColor=none;top=0;left=0;bottom=0;right=0;align=left;spacingLeft=6;" parent="C-vyLk0tnHw3VtMMgP7b-9" vertex="1">
          <mxGeometry x="30" width="220" height="30" as="geometry" />
        </mxCell>
        <mxCell id="C-vyLk0tnHw3VtMMgP7b-13" value="Shipments" style="shape=table;startSize=30;container=1;collapsible=1;childLayout=tableLayout;fixedRows=1;rowLines=0;fontStyle=1;align=center;resizeLast=1;" parent="1" vertex="1">
          <mxGeometry x="450" y="280" width="250" height="130" as="geometry" />
        </mxCell>
        <mxCell id="C-vyLk0tnHw3VtMMgP7b-14" value="" style="shape=partialRectangle;collapsible=0;dropTarget=0;pointerEvents=0;fillColor=none;points=[[0,0.5],[1,0.5]];portConstraint=eastwest;top=0;left=0;right=0;bottom=1;" parent="C-vyLk0tnHw3VtMMgP7b-13" vertex="1">
          <mxGeometry y="30" width="250" height="30" as="geometry" />
        </mxCell>
        <mxCell id="C-vyLk0tnHw3VtMMgP7b-15" value="PK" style="shape=partialRectangle;overflow=hidden;connectable=0;fillColor=none;top=0;left=0;bottom=0;right=0;fontStyle=1;" parent="C-vyLk0tnHw3VtMMgP7b-14" vertex="1">
          <mxGeometry width="30" height="30" as="geometry" />
        </mxCell>
        <mxCell id="C-vyLk0tnHw3VtMMgP7b-16" value="shipment_id int NOT NULL " style="shape=partialRectangle;overflow=hidden;connectable=0;fillColor=none;top=0;left=0;bottom=0;right=0;align=left;spacingLeft=6;fontStyle=5;" parent="C-vyLk0tnHw3VtMMgP7b-14" vertex="1">
          <mxGeometry x="30" width="220" height="30" as="geometry" />
        </mxCell>
        <mxCell id="C-vyLk0tnHw3VtMMgP7b-17" value="" style="shape=partialRectangle;collapsible=0;dropTarget=0;pointerEvents=0;fillColor=none;points=[[0,0.5],[1,0.5]];portConstraint=eastwest;top=0;left=0;right=0;bottom=0;" parent="C-vyLk0tnHw3VtMMgP7b-13" vertex="1">
          <mxGeometry y="60" width="250" height="30" as="geometry" />
        </mxCell>
        <mxCell id="C-vyLk0tnHw3VtMMgP7b-18" value="FK1" style="shape=partialRectangle;overflow=hidden;connectable=0;fillColor=none;top=0;left=0;bottom=0;right=0;" parent="C-vyLk0tnHw3VtMMgP7b-17" vertex="1">
          <mxGeometry width="30" height="30" as="geometry" />
        </mxCell>
        <mxCell id="C-vyLk0tnHw3VtMMgP7b-19" value="order_id int NOT NULL" style="shape=partialRectangle;overflow=hidden;connectable=0;fillColor=none;top=0;left=0;bottom=0;right=0;align=left;spacingLeft=6;" parent="C-vyLk0tnHw3VtMMgP7b-17" vertex="1">
          <mxGeometry x="30" width="220" height="30" as="geometry" />
        </mxCell>
        <mxCell id="C-vyLk0tnHw3VtMMgP7b-20" value="" style="shape=partialRectangle;collapsible=0;dropTarget=0;pointerEvents=0;fillColor=none;points=[[0,0.5],[1,0.5]];portConstraint=eastwest;top=0;left=0;right=0;bottom=0;" parent="C-vyLk0tnHw3VtMMgP7b-13" vertex="1">
          <mxGeometry y="90" width="250" height="30" as="geometry" />
        </mxCell>
        <mxCell id="C-vyLk0tnHw3VtMMgP7b-21" value="" style="shape=partialRectangle;overflow=hidden;connectable=0;fillColor=none;top=0;left=0;bottom=0;right=0;" parent="C-vyLk0tnHw3VtMMgP7b-20" vertex="1">
          <mxGeometry width="30" height="30" as="geometry" />
        </mxCell>
        <mxCell id="C-vyLk0tnHw3VtMMgP7b-22" value="shipment_date date NOT NULL" style="shape=partialRectangle;overflow=hidden;connectable=0;fillColor=none;top=0;left=0;bottom=0;right=0;align=left;spacingLeft=6;" parent="C-vyLk0tnHw3VtMMgP7b-20" vertex="1">
          <mxGeometry x="30" width="220" height="30" as="geometry" />
        </mxCell>
        <mxCell id="C-vyLk0tnHw3VtMMgP7b-23" value="Customers" style="shape=table;startSize=30;container=1;collapsible=1;childLayout=tableLayout;fixedRows=1;rowLines=0;fontStyle=1;align=center;resizeLast=1;" parent="1" vertex="1">
          <mxGeometry x="120" y="120" width="250" height="100" as="geometry" />
        </mxCell>
        <mxCell id="C-vyLk0tnHw3VtMMgP7b-24" value="" style="shape=partialRectangle;collapsible=0;dropTarget=0;pointerEvents=0;fillColor=none;points=[[0,0.5],[1,0.5]];portConstraint=eastwest;top=0;left=0;right=0;bottom=1;" parent="C-vyLk0tnHw3VtMMgP7b-23" vertex="1">
          <mxGeometry y="30" width="250" height="30" as="geometry" />
        </mxCell>
        <mxCell id="C-vyLk0tnHw3VtMMgP7b-25" value="PK" style="shape=partialRectangle;overflow=hidden;connectable=0;fillColor=none;top=0;left=0;bottom=0;right=0;fontStyle=1;" parent="C-vyLk0tnHw3VtMMgP7b-24" vertex="1">
          <mxGeometry width="30" height="30" as="geometry" />
        </mxCell>
        <mxCell id="C-vyLk0tnHw3VtMMgP7b-26" value="customer_id int NOT NULL " style="shape=partialRectangle;overflow=hidden;connectable=0;fillColor=none;top=0;left=0;bottom=0;right=0;align=left;spacingLeft=6;fontStyle=5;" parent="C-vyLk0tnHw3VtMMgP7b-24" vertex="1">
          <mxGeometry x="30" width="220" height="30" as="geometry" />
        </mxCell>
        <mxCell id="C-vyLk0tnHw3VtMMgP7b-27" value="" style="shape=partialRectangle;collapsible=0;dropTarget=0;pointerEvents=0;fillColor=none;points=[[0,0.5],[1,0.5]];portConstraint=eastwest;top=0;left=0;right=0;bottom=0;" parent="C-vyLk0tnHw3VtMMgP7b-23" vertex="1">
          <mxGeometry y="60" width="250" height="30" as="geometry" />
        </mxCell>
        <mxCell id="C-vyLk0tnHw3VtMMgP7b-28" value="" style="shape=partialRectangle;overflow=hidden;connectable=0;fillColor=none;top=0;left=0;bottom=0;right=0;" parent="C-vyLk0tnHw3VtMMgP7b-27" vertex="1">
          <mxGeometry width="30" height="30" as="geometry" />
        </mxCell>
        <mxCell id="C-vyLk0tnHw3VtMMgP7b-29" value="customer_name char(50) NOT NULL" style="shape=partialRectangle;overflow=hidden;connectable=0;fillColor=none;top=0;left=0;bottom=0;right=0;align=left;spacingLeft=6;" parent="C-vyLk0tnHw3VtMMgP7b-27" vertex="1">
          <mxGeometry x="30" width="220" height="30" as="geometry" />
        </mxCell>
      </root>
    </mxGraphModel>
  </diagram>
</mxfile>
